<svg width="164" height="75" viewBox="0 0 164 75" fill="none" xmlns="http://www.w3.org/2000/svg">
<path fill-rule="evenodd" clip-rule="evenodd" d="M17.1602 11.9995C7.77132 11.9995 0.160156 19.6107 0.160156 28.9995V37.2649L13.2197 26.1419L15.1649 24.4851L17.1101 26.1419L21.6114 29.9757L22.6563 30.8657L32.996 22.0591L34.9413 20.4023L36.8865 22.0591L47.9491 31.4814V28.9995C47.9491 19.6107 40.338 11.9995 30.9491 11.9995H17.1602ZM47.9491 39.3627L34.9413 28.2836L19.9362 41.0638V59.7885H30.9491C40.338 59.7885 47.9491 52.1773 47.9491 42.7885V39.3627ZM13.9362 59.4832V39.6783V38.2928L14.9909 37.3944L18.0296 34.8063L17.7209 34.5434L15.1649 32.3664L0.305613 45.0223C1.25971 52.2913 6.80608 58.1144 13.9362 59.4832Z" fill="white"/>
<path d="M118.693 74.3061V66.8108H112.424V74.3061H113.764V67.9379H117.353V74.3061H118.693Z" fill="white"/>
<path d="M123.415 74.436C125.607 74.436 126.973 72.9452 126.973 70.561V70.5506C126.973 68.1717 125.602 66.6809 123.415 66.6809C121.233 66.6809 119.857 68.1717 119.857 70.5506V70.561C119.857 72.9452 121.228 74.436 123.415 74.436ZM123.415 73.2724C122.075 73.2724 121.223 72.2284 121.223 70.561V70.5506C121.223 68.8833 122.08 67.8444 123.415 67.8444C124.755 67.8444 125.607 68.8885 125.607 70.5506V70.561C125.607 72.2128 124.771 73.2724 123.415 73.2724Z" fill="white"/>
<path d="M131.383 74.436C133.107 74.436 134.38 73.3711 134.577 71.8336L134.583 71.7817H133.268L133.258 71.8336C133.009 72.7582 132.344 73.2724 131.383 73.2724C130.079 73.2724 129.238 72.2232 129.238 70.5558V70.5506C129.238 68.8885 130.074 67.8444 131.383 67.8444C132.365 67.8444 133.019 68.3794 133.237 69.2365L133.263 69.3352H134.583L134.572 69.2832C134.38 67.7561 133.107 66.6809 131.383 66.6809C129.232 66.6809 127.866 68.1561 127.866 70.5506V70.5558C127.866 72.9504 129.232 74.436 131.383 74.436Z" fill="white"/>
<path d="M135.689 74.3061H140.535V73.1789H137.024V71.0441H140.343V69.9585H137.024V67.9379H140.535V66.8108H135.689V74.3061Z" fill="white"/>
<path d="M141.751 74.3684C143.143 74.3684 143.745 73.3659 143.86 71.4077L144.062 67.9379H146.503V74.3061H147.838V66.8108H142.862L142.618 71.3246C142.551 72.5712 142.286 73.1634 141.584 73.1634C141.47 73.1634 141.33 73.1426 141.262 73.127V74.3061C141.361 74.3373 141.543 74.3684 141.751 74.3684Z" fill="white"/>
<path d="M152.565 74.436C154.757 74.436 156.123 72.9452 156.123 70.561V70.5506C156.123 68.1717 154.752 66.6809 152.565 66.6809C150.384 66.6809 149.007 68.1717 149.007 70.5506V70.561C149.007 72.9452 150.378 74.436 152.565 74.436ZM152.565 73.2724C151.225 73.2724 150.373 72.2284 150.373 70.561V70.5506C150.373 68.8833 151.23 67.8444 152.565 67.8444C153.905 67.8444 154.757 68.8885 154.757 70.5506V70.561C154.757 72.2128 153.921 73.2724 152.565 73.2724Z" fill="white"/>
<path d="M158.622 74.3061V71.0129H158.902L161.749 74.3061H163.442L160.029 70.374L163.161 66.8108H161.608L158.902 69.9793H158.622V66.8108H157.282V74.3061H158.622Z" fill="white"/>
<path d="M55.344 74.3738V71.0806H55.6245L58.471 74.3738H60.1643L56.7517 70.4418L59.8838 66.8785H58.3307L55.6245 70.047H55.344V66.8785H54.0039V74.3738H55.344Z" fill="white"/>
<path d="M60.8811 74.4361C62.2732 74.4361 62.8757 73.4337 62.99 71.4754L63.1926 68.0056H65.6339V74.3738H66.9688V66.8785H61.9927L61.7486 71.3923C61.681 72.6389 61.4161 73.2311 60.7149 73.2311C60.6006 73.2311 60.4604 73.2103 60.3929 73.1947V74.3738C60.4916 74.405 60.6734 74.4361 60.8811 74.4361Z" fill="white"/>
<path d="M69.3997 74.4361C70.6464 74.4361 71.2852 73.8024 71.9605 72.2286L74.2564 66.8785H72.8487L71.145 71.2936H71.0775L69.301 66.8785H67.883L70.397 72.6545C70.1217 73.1168 69.7737 73.2934 69.2751 73.2934C69.1037 73.2934 68.9374 73.2726 68.8336 73.2467V74.3634C68.8907 74.3894 69.1296 74.4361 69.3997 74.4361Z" fill="white"/>
<path d="M75.1238 74.3738H78.0742C79.5649 74.3738 80.5986 73.4388 80.5986 72.0572V72.0468C80.5986 70.6859 79.5441 69.7561 78.0326 69.7561H76.4639V68.0056H79.887V66.8785H75.1238V74.3738ZM76.4639 73.2726V70.8261H77.7313C78.6819 70.8261 79.2325 71.2573 79.2325 72.0468V72.0572C79.2325 72.8415 78.6819 73.2726 77.7365 73.2726H76.4639Z" fill="white"/>
<path d="M81.8088 74.3738H83.1438V71.1222H86.7902V74.3738H88.1303V66.8785H86.7902V69.995H83.1438V66.8785H81.8088V74.3738Z" fill="white"/>
<path d="M89.5431 74.3738H92.5298C94.0206 74.3738 95.0542 73.3869 95.0542 71.9377V71.9273C95.0542 70.4833 93.9946 69.4912 92.4727 69.4912H90.8832V66.8785H89.5431V74.3738ZM95.958 74.3738H97.2982V66.8785H95.958V74.3738ZM92.1714 70.582C93.1272 70.582 93.6881 71.0651 93.6881 71.9273V71.9377C93.6881 72.7948 93.1324 73.2726 92.1766 73.2726H90.8832V70.582H92.1714Z" fill="white"/>
<path d="M101.869 66.3019C102.97 66.3019 103.651 65.6838 103.651 64.754V64.7073H102.664V64.7488C102.664 65.1644 102.368 65.5228 101.869 65.5228C101.36 65.5228 101.08 65.1644 101.08 64.7488V64.7073H100.093V64.754C100.093 65.6838 100.773 66.3019 101.869 66.3019ZM98.7162 74.3738H99.9161L103.583 69.0705H103.604V74.3738H104.934V66.8785H103.734L100.067 72.1766H100.051V66.8785H98.7162V74.3738Z" fill="white"/>
<path fill-rule="evenodd" clip-rule="evenodd" d="M103.064 0.525884C101.115 1.39405 100.237 4.23071 101.402 5.89396C103.142 8.37818 107.04 8.19846 108.399 5.57194C109.995 2.48529 106.368 -0.945765 103.064 0.525884ZM114.974 0.528331C113.487 1.17552 112.744 2.35242 112.744 4.05903C112.744 7.36351 117.077 8.88411 119.523 6.438C120.213 5.74746 120.436 5.1716 120.436 4.07686C120.436 2.32165 119.687 1.16433 118.129 0.513296C116.709 -0.0800485 116.368 -0.0782999 114.974 0.528331ZM141.727 12.0508C132.941 14.584 128.326 23.9992 128.94 38.137C129.574 52.7343 135.836 60.5142 146.953 60.5142C153.339 60.5142 158.438 57.3237 161.161 51.6235C162.126 49.6046 163.442 44.8754 163.442 43.4299C163.442 43.2481 161.751 43.0016 159.684 42.8824C157.616 42.7632 155.43 42.603 154.824 42.5268C153.755 42.3922 153.716 42.4355 153.481 44.0075C153.128 46.3578 152.054 49.0018 150.986 50.1511C147.646 53.743 142.466 51.9791 140.835 46.6946C140.289 44.9215 140.191 43.389 140.191 36.5636C140.191 27.9187 140.467 25.8593 141.98 23.2125C144.812 18.2567 151.063 19.1846 152.733 24.809C153.014 25.753 153.355 27.4219 153.492 28.5176L153.741 30.5103L158.155 30.2613C160.582 30.1246 162.704 29.9319 162.87 29.8337C163.248 29.6106 162.881 26.2341 162.189 23.5513C160.825 18.264 158.184 14.7868 154.072 12.862C151.909 11.8494 151.408 11.7585 147.534 11.6757C144.827 11.618 142.766 11.7512 141.727 12.0508ZM66.8058 12.8753C66.6107 13.5316 61.8765 30.7487 56.9993 48.5393C55.3518 54.5493 54.0039 59.5447 54.0039 59.6405C54.0039 59.7366 56.1699 59.8149 58.8178 59.8149H63.6313L67.9959 41.4625C70.3962 31.3683 72.4389 23.109 72.535 23.108C72.6312 23.1069 74.7552 31.2197 77.2552 41.1359C79.7551 51.0525 81.8911 59.3163 82.002 59.5002C82.1198 59.6953 84.3148 59.7939 87.2812 59.7373L92.3591 59.6401L86.1739 37.9622C82.7722 26.0394 79.7233 15.3798 79.3989 14.2739L78.809 12.2634H72.8983C67.5718 12.2634 66.9697 12.3239 66.8058 12.8753ZM96.3108 36.0392V59.8149H110.821H125.331V55.6192V51.4235H116.066H106.8V45.4795V39.5356H113.968H121.135V35.5147V31.4938H113.968H106.8V25.8995V20.3052H116.066H125.331V16.2843V12.2634H110.821H96.3108V36.0392Z" fill="white"/>
</svg>
