<?xml version="1.0" standalone="no"?>
<!DOCTYPE svg PUBLIC "-//W3C//DTD SVG 20010904//EN"
 "http://www.w3.org/TR/2001/REC-SVG-20010904/DTD/svg10.dtd">
<svg version="1.0" xmlns="http://www.w3.org/2000/svg"
 width="16.000000pt" height="16.000000pt" viewBox="0 0 16.000000 16.000000"
 preserveAspectRatio="xMidYMid meet">

<g transform="translate(0.000000,16.000000) scale(0.100000,-0.100000)"
fill="#000000" stroke="none">
<path d="M0 124 c0 -36 0 -36 24 -21 17 12 26 13 34 5 9 -9 16 -7 30 5 23 21
31 21 54 0 17 -15 18 -14 18 15 l0 32 -80 0 -80 0 0 -36z"/>
<path d="M82 77 c-12 -13 -22 -35 -22 -50 0 -26 2 -27 50 -27 l50 0 0 33 c0
32 -24 67 -47 67 -5 0 -19 -10 -31 -23z"/>
<path d="M22 73 c-29 -20 -31 -73 -3 -73 15 0 20 9 23 43 3 23 4 43 4 43 -1 1
-11 -5 -24 -13z"/>
</g>
</svg>
