<?xml version="1.0" encoding="UTF-8"?>
<svg xmlns="http://www.w3.org/2000/svg" xmlns:xlink="http://www.w3.org/1999/xlink" viewBox="0 0 3863.62 2263.4">
  <defs>
    <style>
      .cls-1 {
        opacity: .75;
      }

      .cls-1, .cls-2 {
        fill: none;
      }

      .cls-3 {
        stroke-width: 1.5px;
      }

      .cls-3, .cls-4, .cls-5 {
        fill: #fff;
      }

      .cls-3, .cls-5 {
        stroke: #fff;
      }

      .cls-2 {
        stroke: #000;
        stroke-width: 2px;
      }
    </style>
  </defs>
  <g id="Layer_3" data-name="Layer 3">
    <image width="2342" height="1372" transform="scale(1.65)" xlink:href="/images/map4.jpg"/>
  </g>
  <g id="Layer_1" data-name="Layer 1">
    <path id="_23" data-name="23" class="cls-2" d="m1510.99,1246.06l-.95-.36-.35.95-64.4,173.95-.38,1.02,1.05.29,135.41,38.05.88.25.33-.85,61.91-161.65.36-.93-.94-.36-132.92-50.36Z"/>
    <path id="_25" data-name="25" class="cls-2" d="m1242.68,1142.87l-.95-.37-.35.96-72.66,197.75-.37,1.01,1.02.3,137.88,40.51.9.27.32-.89,66.89-187.09.33-.92-.91-.35-132.1-51.18Z"/>
    <path id="_1" data-name="1" class="cls-2" d="m2826.08,1686.75l.95.36.34-.96,51.22-145.8.31-.87-.84-.38-135.38-60.48-.98-.44-.37,1-56.97,153.44-.35.94.94.35,141.13,52.84Z"/>
    <path id="_1а" data-name="1а" class="cls-2" d="m2870.62,1535.15l.95.36.34-.96-115.3-100.87-.98-.44-.37,1-14.65,43.29-.35.94.94.35,129.42,56.33Z"/>
    <path id="_2" data-name="2" class="cls-2" d="m2544.87,1578.97l-.34.93.92.35,136.22,51.19.93.35.35-.94,56.98-153.44.33-.89-.87-.38-134.56-58.57-.97-.43-.36,1-58.63,160.83Z"/>
    <path id="_2а" data-name="2а" class="cls-2" d="m2603.25,1416.25l-.34.93.92.35,136.56,57.21.93.35.35-.94,13.69-40.27.33-.89-.69-.62-117.63-105.46-.85-.76-.48,1.33-32.79,88.78Z"/>
    <path id="_3" data-name="3" class="cls-2" d="m2467,1358.16l-.97-.42-.37.99-61.92,165.75-.35.94.94.35,138.67,51.19.94.35.35-.94,58.62-159.19.34-.9-.89-.37-78.75-33h-.01l-56.6-24.75Z"/>
    <path id="_3а" data-name="3а" class="cls-2" d="m2511.06,1233.23l-.97-.42-.37.99-43.5,123.29-.35.94.94.35,135.5,57.52.94.35.35-.94,31.96-88.8.34-.9-.71-.56-89.08-79.38h-.01l-35.05-12.44Z"/>
    <path id="_4" data-name="4" class="cls-2" d="m2319.96,1319.25h0l-57.36,154.85-.35.95.95.34,139.49,50.38.95.34.34-.95,57.76-163.05.31-.88-.86-.37-109.19-46.62h0l-32.04,5.01Z"/>
    <path id="_4а" data-name="4а" class="cls-2" d="m2366.78,1183.62h0l-46.2,132.83-.35.95.95.34,30.7-4.96,109.85,46.87.95.34.34-.95,46.7-125.25.31-.88-.86-.37-142.4-48.93Z"/>
    <path id="_6а" data-name="6а" class="cls-2" d="m2085.04,1084.52h0l-13.49,43.65h0l54.9,12.13,50.06,118.2.95.34.34-.95,46.6-123.91.31-.88-.86-.37-138.8-48.21Z"/>
    <path id="_5" data-name="5" class="cls-2" d="m2176.97,1261.39h0l-.48,1.35-53.38,153.61-.31.89.88.36,137.84,56.12.99.4.34-1,52.39-152.21.24-.71h0l-104.97,19.09-33.54-77.9Z"/>
    <path id="_5а" data-name="5а" class="cls-2" d="m2317.02,1317.14h0l.48-1.35,46.63-132.16.31-.89-.88-.36-137.88-48.87-.99-.4-.34,1-45.6,123.51-.24.71h0l32.79,78.99,105.72-20.18Z"/>
    <path id="_6" data-name="6" class="cls-2" d="m1980.45,1360.19l-.37.92.92.37,141.94,57.77.99.41.34-1.02,52.02-156.72.21-.61-.47-.44-50.18-118.39-.22-.21-.31-.05-53-12.4-.79-.12-.29.74-90.79,229.74Z"/>
    <path id="_7" data-name="7" class="cls-2" d="m1919.69,1099.14l-.84-.16-.29.8-77.62,210.88-.35.94.94.34,138.68,51.2.94.34.34-.94,85.06-233.86.4-1.1-1.15-.22-146.11-28.22Z"/>
    <path id="_7а" data-name="7а" class="cls-2" d="m1940.65,1034.57l-.84-.16-.29.8-21.55,63.29-.35.94.94.34,147.24,27.58.94.34.34-.94,14.6-42.23.4-1.1h0l-141.42-48.85Z"/>
    <path id="_ЗУ1" data-name="ЗУ1" class="cls-2" d="m1797.85,984.8l-.84-.16-.29.8-29,82.05-.35.94.94.34,147.24,27.58.94.34.34-.94,22.04-60.99.4-1.1h0l-141.42-48.85Z"/>
    <path id="_9а" data-name="9а" class="cls-2" d="m1655.44,935.21l-.84-.16-.29.8-32.9,96.18-.35.94.94.34,62.97,21.02,79.92,12.65.94.34.34-.94,30.29-81.21.4-1.1h0l-141.42-48.85Z"/>
    <path id="_10а" data-name="10а" class="cls-2" d="m1513.26,885.09l-.84-.16-.29.8-30.05,89.34-.35.94.94.34,136.73,57.38.94.34.34-.94,33.61-98.09.4-1.1h0l-141.42-48.85Z"/>
    <path id="_11а" data-name="11а" class="cls-2" d="m1371.48,835.98l-.84-.16-.29.8-28.02,89.32-.35.94.94.34,136.94,49.21.94.34.34-.94,30.88-89.8.4-1.1h0l-140.94-48.95Z"/>
    <path id="_12а" data-name="12а" class="cls-2" d="m1228.47,785.77l-.84-.16-.29.8-28.73,83.67-.35.94.94.34,139.12,53,.94.34.34-.94,29.41-87.94.4-1.1h0l-140.94-48.95Z"/>
    <path id="_14а" data-name="14а" class="cls-2" d="m943.28,687.27l-.84-.16-.29.8-23.47,72.21-.35.94.94.34,142.1,41.72.94.34.34-.94,21.17-65.19.4-1.1h0l-140.94-48.95Z"/>
    <path id="_13а" data-name="13а" class="cls-2" d="m1085.06,736.38l-.84-.16-.29.8-21.11,67.44-.35.94.94.34,12.1,4.61-7.02,86.24,95.22-42.73,29.17,13.27.94.34.34-.94,31.44-80.1.4-1.1h0l-140.94-48.95Z"/>
    <path id="_8" data-name="8" class="cls-2" d="m1767.81,1070.91l-.83-.15-.29.8-65.24,183.81-.33.93.92.34,139.49,52.02.95.35.35-.95,75.15-209.25.4-1.11-1.17-.21-149.4-26.58Z"/>
    <path id="_9" data-name="9" class="cls-2" d="m1622.67,1034.51l-.92-.29-.33.9-60.27,164.11-.34.93.92.35,134.57,51.19.94.36.35-.95,66.88-181.34.42-1.12-1.18-.21-78.74-14.11-62.3-19.81Z"/>
    <path id="_10" data-name="10" class="cls-2" d="m1480.8,976.77l-.98-.4-.35,1-59.2,170.34-.32.91.9.35,137.85,53.66.96.37.34-.97,60.02-167.06.32-.9-.88-.36-138.66-56.94Z"/>
    <path id="_11" data-name="11" class="cls-2" d="m1342.9,927.2l-.92-.33-.35.91-63.57,166.57-.36.94.94.35,134.57,50.36.92.34.36-.91,66.86-168.2.38-.97-.98-.35-137.85-48.73Z"/>
    <path id="_12" data-name="12" class="cls-2" d="m1199.33,871.08l-.95-.36-.35.95-60.27,164.11-.34.91.9.36,137.84,56.12.96.39.36-.97,61.1-167.4.34-.93-.92-.35-138.67-52.84Z"/>
    <path id="_13" data-name="13" class="cls-2" d="m1059.92,803.94l-.99-.49-.39,1.03-66.05,175.6-.35.94.93.35,140.31,52.84.96.36.33-.97,57.82-164.94.3-.84-.81-.39-28.28-13.57h-.01s-.01,0-.01,0l-95.29,43.85,6.73-86.28h0s-15.2-7.49-15.2-7.49Z"/>
    <path id="_14" data-name="14" class="cls-2" d="m919.47,762.1l-.9-.27-.33.88-61.92,165.75-.35.93.93.35,137.03,52.01.93.35.36-.93,66.87-174.77.39-1-1.03-.31-141.97-42.99Z"/>
    <path id="_15" data-name="15" class="cls-2" d="m2838.91,1756.42l.25-.88-.86-.33-171.5-64.36-1.02-.39-.29,1.05-39.54,141.92-.3,1.05,1.08.2,179.55,32.51.89.16.25-.87,31.49-110.06Z"/>
    <path id="_16" data-name="16" class="cls-2" d="m2530.86,1640.33l-1.02-.38-.29,1.05-46.16,166.21-.29,1.05,1.08.2,142.55,26.22.9.16.24-.88,39.54-141.91.25-.89-.86-.32-135.94-50.51Z"/>
    <path id="_18" data-name="18" class="cls-2" d="m2235.73,1529.44l-1.04-.39-.28,1.08-27.19,106.55-.24.95.94.26,173.17,47.98.96.27.27-.96,25.73-90.08.25-.89-.86-.32-171.71-64.45Z"/>
    <path id="_38" data-name="38" class="cls-2" d="m2176.62,1747.46l-.29,1.03,1.05.22,177.3,36.49.92.19.24-.91,25.73-94.28.26-.95-.96-.27-173.24-48.91-.96-.27-.27.97-29.78,106.69Z"/>
    <path id="_19" data-name="19" class="cls-2" d="m2091.45,1472.35l-.96-.37-.34.97-41.3,119.81-.35,1.01,1.03.28,155.93,43.02.99.27.25-.99,27.32-108.34.21-.86-.82-.32-141.96-54.48Z"/>
    <path id="_37" data-name="37" class="cls-2" d="m2024.01,1720.95l-.2,1,1,.17,150.22,26.59.9.16.24-.88,29.78-108.34.27-.96-.96-.27-155.94-43.01-1.04-.29-.21,1.06-24.06,124.77Z"/>
    <path id="_36" data-name="36" class="cls-2" d="m1884.38,1548.27l-1.06-.31-.21,1.08-26.56,140.37-.19.99,1,.18,165,29.08.99.17.17-.99,20.77-122.31.15-.88-.85-.25-159.21-47.13Z"/>
    <path id="_20" data-name="20" class="cls-2" d="m1934.01,1408.8l-.96-.37-.34.96-49.55,137.04-.36,1,1.03.3,161.67,46.31.9.26.32-.88,44.59-123.08.33-.93-.91-.35-156.72-60.26Z"/>
    <path id="_21" data-name="21" class="cls-2" d="m1790.41,1355.13l-.95-.36-.34.95-53.68,146.06-.36.99,1.01.31,145.26,43.82.92.27.31-.9,47.91-137.04.32-.92-.91-.34-139.49-52.84Z"/>
    <path id="_35" data-name="35" class="cls-2" d="m1706.33,1662.03l-.16.98.98.17,147.76,24.93.96.17.19-.96,27.38-139.54.18-.91-.9-.25-150.19-41.36-1.07-.3-.18,1.1-24.95,155.97Z"/>
    <path id="_34" data-name="34" class="cls-2" d="m1583.99,1464.72l-1.08-.3-.18,1.1-27.43,165.82-.16.94.93.2,147.25,31.91,1,.22.19-1.02,29.12-155.84.17-.9-.88-.25-148.93-41.88Z"/>
    <path id="_22" data-name="22" class="cls-2" d="m1646.8,1301.46l-.92-.34-.36.92-61.91,161.64-.4,1.04,1.07.29,147.73,39.71.89.24.31-.86,54.5-149.34.34-.94-.93-.34-140.32-52.02Z"/>
    <path id="_33" data-name="33" class="cls-2" d="m1410.82,1606.4l-.17.98.98.18,140.37,24.92.98.17.18-.97,30.72-165,.16-.88-.85-.26-138.7-42.16-1.07-.32-.2,1.11-32.4,182.23Z"/>
    <path id="_24" data-name="24" class="cls-2" d="m1378.49,1198.27l-.94-.35-.34.94-68.54,186.27-.37,1.02,1.04.29,134.6,37.22.89.25.32-.87,63.58-175.6.34-.94-.93-.34-129.65-47.89Z"/>
    <path id="_32" data-name="32" class="cls-2" d="m1277.02,1582.33l-.16.97.97.17,132.16,24.08.98.18.18-.98,33.22-182.23.16-.91-.89-.24-133.77-36.4-1.07-.29-.18,1.1-31.6,194.55Z"/>
    <path id="_31" data-name="31" class="cls-2" d="m1133.37,1555.76l-.16.96.96.18,139.54,26.56,1.01.19.17-1.01,32.42-196.19.15-.88-.86-.24-137.05-39.7-1.08-.31-.19,1.11-34.91,209.33Z"/>
    <path id="_30" data-name="30" class="cls-2" d="m1036.61,1306.77l-1.02-.31-.25,1.04-22.41,95.61v.07s-19.93,126.02-19.93,126.02l-.15.96.95.18,137.09,25.73,1,.19.17-1,34.91-208.51.15-.87-.85-.25-129.66-38.86Z"/>
    <path id="_26" data-name="26" class="cls-2" d="m1106.92,1090.97l-.97-.38-.34.98-53.19,153.22v.04s-.02.04-.02.04l-15.41,60.96-.23.95.94.26,65.24,18.2,65.25,18.2.89.25.32-.88,71.02-198.58.33-.91-.91-.35-132.92-52Z"/>
    <path id="_27" data-name="27" class="cls-2" d="m960.43,1052.76l-.33.19-.12.36-45.07,131.5-.32.93.92.33,73.03,26.43h.01s64.01,22.3,64.01,22.3l.93.32.34-.92,52.02-141.13.34-.92-.91-.36-125.54-49.52-.44-.18-.41.23-18.45,10.44Z"/>
    <path id="_28" data-name="28" class="cls-2" d="m863.7,1332.51l-.32.93.92.34,149.34,54.5,1.04.38.27-1.08,38.09-151.84.22-.89-.87-.3-137.85-47.9-.95-.33-.33.95-49.57,145.24Z"/>
    <path id="_29" data-name="29" class="cls-2" d="m809.17,1493.35l-.37,1.09,1.13.22,181.42,34.03,1.02.2.15-1.03,19.97-135.46.12-.8-.76-.28-148.53-54.5-.96-.35-.33.97-52.87,155.91Z"/>
    <path id="_61" data-name="61" class="cls-2" d="m1613.84,2005.43l1.03.03v-1.03l.29-141.7v-.88l-.87-.12-143.71-18.71-1.11-.14-.02,1.11-3.6,156.01-.03,1,1,.03,147.02,4.4Z"/>
    <path id="_62" data-name="62" class="cls-2" d="m1757.45,2009.71l1.03.03v-1.02l.27-133.74v-.9l-.89-.1-138.67-15.06-1.07-.12-.03,1.08-4.44,144.52-.03,1,1,.03,142.83,4.28Z"/>
    <path id="_46" data-name="46" class="cls-2" d="m1759.99,1735.38v-.83l-.81-.15-136.36-25.73-1.15-.22-.03,1.17-3.58,146.16-.03.93.93.09,139.66,14.25,1.1.11v-1.11l.27-134.67Z"/>
    <path id="_45" data-name="45" class="cls-2" d="m1912.02,1889.42l1.1.12v-1.11s.25-121.53.25-121.53v-.82l-.8-.16-149.36-30.69-1.17-.24-.03,1.19-4.29,135.48-.03.93.92.1,153.41,16.73Z"/>
    <path id="_63" data-name="63" class="cls-2" d="m1909.06,2015.88l1,.04.03-1,3.87-120.71.03-.92-.92-.1-152.7-17.56-1.11-.13v1.12l-.27,133.03v.97s.96.03.96.03l149.11,5.23Z"/>
    <path id="_44" data-name="44" class="cls-2" d="m2079.74,1909.96l1.09.14.03-1.11,2.65-112.09.02-.86-.84-.15-163.54-29.96-1.15-.21-.03,1.16-3.54,121.53-.02.91.9.11,164.43,20.53Z"/>
    <path id="_64" data-name="64" class="cls-2" d="m2077.2,2021.08l1.01.04.02-1.01,2.63-111.12.02-.93-.93-.09-165.25-15.6-1.1-.11v1.1l-.25,121.53v.97l.97.03,162.88,5.19Z"/>
    <path id="_42" data-name="42" class="cls-2" d="m2382.11,2028.3l1,.02.03-1,4.17-176.55.02-.85-.84-.15-122.2-22.62-1.16-.22-.02,1.18-4.64,196.26-.03,1,1,.03,122.67,2.9Z"/>
    <path id="_43" data-name="43" class="cls-2" d="m2082.59,1795.89l-1.14-.2-.03,1.16-2.65,112.1-.02.93.92.08,182.02,17.31,1.07.1.03-1.08,2.32-98.14.02-.86-.85-.15-181.69-31.25Z"/>
    <path id="_65" data-name="65" class="cls-2" d="m2076.14,2020.06l-.02,1,1,.02,182.32,4.32,1,.02.03-1,2.32-98.13.02-.93-.93-.09-182.02-17.3-1.07-.1-.02,1.08-2.63,111.11Z"/>
    <path id="_41" data-name="41" class="cls-2" d="m2386.49,1849.77l-1.15-.21-.03,1.17-4.17,176.54-.03.99.99.04,126.47,4.92,1.02.04.02-1.02,3.77-159.24.02-.86-.85-.15-126.06-22.22Z"/>
    <path id="_40" data-name="40" class="cls-2" d="m2641.36,2036.36l1,.02.03-1,3.27-138.55.02-.86-.84-.15-132.29-23.83-1.15-.2-.03,1.16-3.76,159.25-.02.99,1,.03,132.77,3.14Z"/>
    <path id="_39" data-name="39" class="cls-2" d="m2824.84,1928.9l.54-1.18-1.28-.22-179.26-31.68-1.15-.2-.02,1.16-3.28,138.55-.02,1,1,.03,131.81,3.12h.66s.27-.59.27-.59l50.73-109.99Z"/>
    <path id="_69" data-name="69" class="cls-2" d="m753.24,920.27l-.99-.38-.32,1.01-45.45,142.79-.29.9.88.34,159.18,61.91.98.38.33-1,47.1-143.61.3-.91-.89-.34-160.83-61.09Z"/>
    <path id="_68" data-name="68" class="cls-2" d="m822.48,1265.54l.97.34.31-.98,43.8-136.22.29-.91-.9-.33-161.65-60.27-.98-.36-.32.99-45.45,139.51-.3.93.92.32,163.3,56.99Z"/>
    <path id="_67" data-name="67" class="cls-2" d="m546.92,1316.69l-1.29,1.25,1.74.44,236.69,60.13.89.23.3-.87,38.07-108.92.33-.95-.96-.33-166.15-56.09-.58-.2-.44.42-108.61,104.89Z"/>
    <path id="_17" data-name="17" class="cls-2" d="m2354.76,1783.65l-.29,1.06,1.09.18,128.66,21.97.89.15.25-.87,46.15-166.21.25-.88-.86-.33-123.43-46.43-1.03-.39-.29,1.06-51.39,190.69Z"/>
    <path id="_66" data-name="66" class="cls-2" d="m784.93,1380.62l.34-1.02-1.04-.27-237.19-61.25-.42-.1-.37.23-50.15,31.92-.38.24-.07.45-13.31,82.91-.15.95.95.19,265.34,51.86.86.17.28-.84,35.32-105.44Z"/>
    <path id="_48" data-name="48" class="cls-2" d="m1468.18,1841.74l1.12.13v-1.12l.32-158.49v-.83l-.82-.15-141.5-26.57-1.15-.21-.04,1.16-4.94,167.51-.03.92.91.11,146.13,17.54Z"/>
    <path id="_54" data-name="54" class="cls-2" d="m421,1484.51l-.89-.17-.26.87-66.15,226.51-.27.93.92.3,174.79,57.84.95.31.31-.95,38.84-118.99.03-.08v-.08s20.81-132.98,20.81-132.98l.15-.96-.95-.18-168.27-32.37Z"/>
    <path id="_53" data-name="53" class="cls-2" d="m758.35,1549.58l.17-.98-.97-.18-164.99-30.71-1-.19-.17,1-21.61,127.24-.16.92.91.22,163.33,38.93,1.04.24.18-1.05,23.27-135.44Z"/>
    <path id="_55" data-name="55" class="cls-2" d="m690.78,1826.13l.97.34.3-.99,42.16-136.23.31-1.01-1.02-.25-161.69-40.57-.91-.23-.28.9-38.84,122.27-.29.93.92.32,158.38,54.52Z"/>
    <path id="_52" data-name="52" class="cls-2" d="m878.3,1723.89l1.04.26.18-1.06,24.93-146.94.16-.98-.97-.17-142.83-25.75-.99-.18-.17.99-24.09,137.91-.16.92.91.22,141.99,34.78Z"/>
    <path id="_56" data-name="56" class="cls-2" d="m831.95,1871.59l.95.3.31-.95,46.28-143.61.33-1.02-1.04-.26-141.99-35.59-.91-.23-.28.89-42.97,134.59-.3.95.95.3,138.69,44.63Z"/>
    <path id="_51" data-name="51" class="cls-2" d="m1032.62,1600.91l.02-.85-.83-.16-124.76-24.89-1.01-.2-.17,1.01-24.93,147.76-.15.9.88.23,144.45,38.07,1.21.32.04-1.25,5.26-160.94Z"/>
    <path id="_57" data-name="57" class="cls-2" d="m978.11,1918.69l.95.31.31-.95,49.57-150.17.34-1.01-1.03-.27-146.09-38.07-.92-.24-.28.91-44.63,142.79-.29.95.94.3,141.15,45.45Z"/>
    <path id="_50" data-name="50" class="cls-2" d="m1178.73,1627.49l.04-.86-.85-.16-142.01-26.57-1.15-.21-.04,1.16-5.25,163.4-.03.85.83.17,140.36,28.2,1.15.23.05-1.17,6.9-165.04Z"/>
    <path id="_58" data-name="58" class="cls-2" d="m1143.92,1966.66l1.08.32.19-1.12,27.44-168.28.15-.95-.94-.19-141.18-29.03-.88-.18-.28.86-47.93,150.17-.31.98.98.29,161.67,47.13Z"/>
    <path id="_49" data-name="49" class="cls-2" d="m1316.73,1824.15l1.16.24.04-1.18,6.09-169.15.04-.87-.86-.15-142.01-24.93-1.14-.2-.04,1.16-5.26,164.22-.02.84.82.17,141.18,29.85Z"/>
    <path id="_59" data-name="59" class="cls-2" d="m1313.33,1994.96l1.11.15.03-1.12,3.97-167.77.02-.83-.81-.17-140.8-29.93-1.01-.21-.18,1.02-29.16,170.26-.14.8.75.3,16.41,6.6.11.05h.12s149.58,20.85,149.58,20.85Z"/>
    <path id="_60" data-name="60" class="cls-2" d="m1464.83,2000.2l1.03.04v-1.04l.31-152.15v-.87l-.87-.12-140.85-18.94-1.09-.14-.05,1.09-7.29,165.86-.04,1.01,1.01.03,147.84,5.23Z"/>
    <path id="_47" data-name="47" class="cls-2" d="m1615.65,1858.44l1.09.13.03-1.1,3.59-148.63.02-.85-.85-.15-144.47-25.75-1.15-.21-.03,1.16-4.24,156.84-.02.91.9.11,145.13,17.54Z"/>
  </g>
  <g id="Layer_2" data-name="Layer 2">
    <g class="cls-1">
      <g>
        <path class="cls-3" d="m2772.21,1579.01l11.01-6.77-.71,37.95v.75s.74.02.74.02l4.1.13.75.02v-.75s.83-43.97.83-43.97v-.75s-.74-.02-.74-.02l-4.1-.13h-.23l-.19.12-12.19,7.83-.33.21v.4s-.09,4.29-.09,4.29l-.03,1.39,1.18-.72Z"/>
        <path class="cls-3" d="m2624.83,1547.59l-.21.22v.3s-.06,2.85-.06,2.85v.75s.74.03.74.03l29.05.89.75.02.02-.75.07-3.77v-.75s-.74-.02-.74-.02l-21.49-.66,10.92-10.73h0c8.03-7.79,10.56-11.55,10.65-16.56.13-7.24-5.97-13.01-14.19-13.27-8.22-.25-15.04,5.25-15.33,13h0v1.03s.73.02.73.02l4.08.12.75.03v-.75s.02-.25.02-.25c.21-4.59,4.22-8.23,9.79-8.06,5.02.16,8.52,3.74,8.44,8.21-.03,1.76-.39,3.24-1.52,5.05-1.15,1.84-3.11,4.03-6.38,7.17h-.01s-16.08,15.88-16.08,15.88Z"/>
        <path class="cls-3" d="m2485.15,1483.93v.07c.29,3.58,1.91,6.78,4.64,9.07,2.73,2.28,6.53,3.64,11.15,3.65,9.08.27,16.09-5.18,16.23-12.98.06-3.31-1.08-6.11-3.14-8.17-1.43-1.44-3.29-2.5-5.44-3.13,4.38-1.65,7.31-5.15,7.4-10.04.13-7.04-5.92-12.1-14.34-12.35-8.47-.26-14.46,4.59-15.3,11.76v.34s-.02.75-.02.75l.75.02,4.08.12.75.03v-.75s.01-.22.01-.22c.57-4.04,4.16-6.96,9.64-6.79,2.76.08,4.93.9,6.38,2.19,1.44,1.29,2.24,3.11,2.2,5.37-.08,4.28-3.75,7.45-9.38,7.28l-5.13-.16-.75-.02v.75s-.08,3.5-.08,3.5v.75s.74.03.74.03l5.39.16c3.44.11,6.1,1.01,7.87,2.48,1.75,1.46,2.71,3.54,2.66,6.18-.08,4.65-4.14,8.09-10.31,7.9-6.15-.19-9.88-3.47-10.42-7.8v-.21s.02-.75.02-.75l-.75-.02-4.07-.13-.75-.02-.02.75v.39Z"/>
        <path class="cls-3" d="m2340.7,1434.73l-.02.75.75.03,21.85.67-.17,8.97v.75s.74.03.74.03l4.07.12.75.02v-.74s.18-9.11.18-9.11l5.82.17.75.03v-.75s.08-3.64.08-3.64v-.74s-.74-.03-.74-.03l-5.82-.18.55-29.47v-.75s-.74-.02-.74-.02l-6.17-.19h-.4s-.23.31-.23.31l-21.05,29.6-.13.18v.23l-.07,3.76Zm6.5-4.31l16.61-23.12-.44,23.61-16.17-.49Z"/>
        <path class="cls-3" d="m2191.35,1401.82v.07c.57,7.23,6.91,12.7,15.36,13.09h.01c9.44.29,16.51-5.89,16.68-15.04.16-8.86-6.38-15.49-15.19-15.76-3.83-.12-7.46,1.05-10.01,3.37l1.66-13.55,20.49.62.75.03v-.75s.08-3.77.08-3.77l.02-.75-.75-.02-24.71-.75-.69-.02-.07.67-2.82,24.59-.1.82.83.02,3.81.12h.46s.22-.39.22-.39c.35-.67.96-1.36,1.6-1.96h.01s.01-.02.01-.02c2.12-2.12,4.97-3.25,8.32-3.15,6.04.19,10.35,4.67,10.24,10.6-.11,5.93-4.57,10.15-10.75,9.96-5.32-.16-9.34-3.68-9.89-7.92v-.2s.02-.75.02-.75l-.75-.02-4.07-.13-.75-.02-.02.75v.26Z"/>
        <path class="cls-3" d="m2102.93,1270.58v-.09l-.02-.09c-1.41-6.51-7.04-11.31-14.85-11.54-5.49-.17-9.97,2.01-13.08,6.21-3.09,4.17-4.8,10.26-4.94,17.88-.14,7.78,1.79,13.39,4.96,17.09,3.16,3.7,7.49,5.4,11.95,5.47,9.19.28,16.24-6.18,16.41-15.18.16-8.73-6.38-15.49-15.19-15.76-5.36-.16-9.91,2.21-12.45,5.76.31-4.46,1.35-8.43,3.17-11.34,2.02-3.21,4.98-5.13,9.08-5,4.71.14,8.14,2.8,9.15,6.62h0s.01.03.01.03l.12.39.17.52h.53s4.21.14,4.21.14l.75.03v-.75s.02-.39.02-.39Zm-5.28,19.83c-.11,5.82-4.72,10.27-10.62,10.09-5.98-.18-10.33-5.14-10.35-11,.11-5.51,4.8-9.74,10.73-9.56,6.04.19,10.34,4.67,10.24,10.47Z"/>
        <path class="cls-3" d="m1932.08,1212.55l23.49.84-20.79,38.28-.59,1.08,1.23.03,4.47.14h.46s.22-.39.22-.39l21.11-39.36.09-.16v-.18l.07-3.89.02-.75-.75-.02-28.93-.88-.75-.02v.75s-.08,3.76-.08,3.76l-.02.75.75.03Z"/>
        <path class="cls-3" d="m1796.07,1175.52c-5,1.65-8.47,5.91-8.57,11.18-.14,7.97,6.97,13.56,16.41,13.85,9.44.29,16.62-4.87,16.76-12.83.1-5.28-3.12-9.64-8.12-11.66,4.13-1.63,6.85-5.05,6.94-9.54.13-7.17-6.05-12.36-14.72-12.63-8.66-.27-15.17,4.53-15.3,11.71-.08,4.4,2.53,7.97,6.6,9.92Zm8.24,3.1c3.29.1,5.99,1.09,7.84,2.63,1.84,1.53,2.87,3.62,2.82,6.04-.04,2.42-1.15,4.44-3.04,5.86-1.91,1.42-4.64,2.25-7.93,2.15-6.58-.2-10.74-4.03-10.65-8.79.08-4.61,4.36-8.08,10.96-7.87Zm.36-19.73c2.82.09,5.13.96,6.7,2.32,1.57,1.35,2.45,3.21,2.41,5.39-.04,2.1-.98,3.84-2.59,5.05-1.62,1.22-3.96,1.92-6.78,1.84-5.8-.18-9.31-3.48-9.24-7.45.07-4.12,3.85-7.31,9.5-7.14Z"/>
        <path class="cls-3" d="m1650.63,1137v.09l.02.09c1.41,6.51,7.04,11.31,14.85,11.55,5.5.17,9.97-2.02,13.09-6.22,3.09-4.17,4.79-10.26,4.93-17.88.15-7.78-1.76-13.39-4.9-17.09-3.16-3.71-7.48-5.4-12-5.47-9.2-.28-16.25,6.18-16.41,15.18-.16,8.73,6.37,15.49,15.18,15.76,5.35.16,9.89-2.2,12.43-5.73-.36,4.45-1.4,8.41-3.2,11.31-2,3.22-4.93,5.13-9.03,5-4.7-.14-8.14-2.8-9.15-6.62v-.03s-.13-.39-.13-.39l-.16-.52-.54-.02-4.21-.13-.75-.02v.75s-.02.39-.02.39Zm16.03-29.79c6.01.18,10.46,5.03,10.35,10.99-.1,5.49-4.9,9.62-10.74,9.57-6.03-.19-10.33-4.67-10.22-10.47.1-5.82,4.72-10.27,10.61-10.09Z"/>
        <path class="cls-3" d="m1496.51,1066.41l11.01-6.76-.7,37.94-.02.75.75.02,4.1.12.75.02.02-.75.81-43.97v-.75s-.74-.02-.74-.02l-4.1-.12h-.23s-.19.12-.19.12l-12.19,7.83-.33.21v.4s-.09,4.29-.09,4.29l-.03,1.38,1.18-.72Z"/>
        <path class="cls-3" d="m1538.47,1053.12c-5.25-.16-9.52,2.01-12.5,6.04-2.95,4.01-4.59,9.8-4.72,16.91-.13,7.04,1.3,12.9,4.1,17.06,2.82,4.19,7.01,6.62,12.26,6.78,5.24.16,9.51-2.01,12.49-6.02,2.95-3.99,4.59-9.76,4.72-16.79v-.13c.13-7.04-1.29-12.9-4.1-17.06-2.82-4.19-7.01-6.62-12.25-6.78Zm.03,5.27c3.39.1,6.09,1.81,7.95,4.94,1.88,3.16,2.9,7.77,2.79,13.6-.1,5.7-1.26,10.28-3.24,13.39-1.96,3.08-4.72,4.7-8.17,4.6-3.46-.11-6.16-1.85-8-4.98-1.86-3.17-2.85-7.79-2.74-13.55v-.13c.11-5.76,1.29-10.31,3.29-13.36,1.97-3.03,4.73-4.6,8.12-4.49Z"/>
        <path class="cls-3" d="m1359.67,1014.63l11.01-6.76-.7,37.94v.75s.73.02.73.02l4.11.12.75.02v-.75s.82-43.97.82-43.97l.02-.75-.75-.02-4.11-.12h-.23s-.19.12-.19.12l-12.19,7.83-.33.21v.4s-.09,4.29-.09,4.29l-.02,1.38,1.17-.72Z"/>
        <path class="cls-3" d="m1386.14,1015.26l11.01-6.76-.7,37.94v.75s.74.02.74.02l4.1.12.75.02v-.75s.83-43.97.83-43.97v-.75s-.74-.02-.74-.02l-4.1-.12h-.23s-.19.12-.19.12l-12.2,7.83-.33.21v.4s-.08,4.29-.08,4.29l-.03,1.38,1.17-.72Z"/>
        <path class="cls-3" d="m1214.39,961.22l11.01-6.76-.7,37.95v.75s.74.02.74.02l4.1.12.75.02v-.75s.83-43.97.83-43.97v-.75s-.74-.02-.74-.02l-4.1-.12h-.23s-.2.12-.2.12l-12.19,7.83-.33.21v.4s-.08,4.29-.08,4.29l-.03,1.38,1.17-.72Z"/>
        <path class="cls-3" d="m1239.8,989.34l-.21.21v.3s-.06,2.86-.06,2.86l-.02.75.75.02,29.06.89.75.02.02-.75.07-3.76v-.75s-.74-.02-.74-.02l-21.5-.66,10.93-10.73h0c8.03-7.8,10.56-11.55,10.65-16.57.13-7.24-5.97-13.01-14.19-13.26-8.22-.25-15.04,5.25-15.33,13h0v.27l-.02.75.75.02,4.08.12.75.02v-.75s.02-.25.02-.25c.21-4.59,4.22-8.22,9.79-8.05,5.02.15,8.52,3.74,8.44,8.21-.03,1.76-.39,3.23-1.52,5.04-1.15,1.85-3.11,4.04-6.38,7.18h-.01s-16.08,15.88-16.08,15.88Z"/>
        <path class="cls-3" d="m1054,928.52l11.01-6.76-.7,37.94-.02.75.75.02,4.1.12.75.02.02-.75.81-43.97v-.75s-.74-.02-.74-.02l-4.1-.12h-.23s-.19.12-.19.12l-12.19,7.83-.33.21v.4s-.09,4.29-.09,4.29l-.03,1.38,1.18-.72Z"/>
        <path class="cls-3" d="m1078.68,948.95v.07c.57,7.24,6.67,12.57,15.78,12.72,9.09.28,16.09-5.18,16.24-12.98.06-3.31-1.08-6.11-3.14-8.17-1.44-1.44-3.29-2.49-5.44-3.13,4.38-1.65,7.3-5.15,7.39-10.04.13-7.04-5.92-12.1-14.33-12.36-8.47-.26-14.47,4.59-15.3,11.77v.07s0,.26,0,.26v.75s.74.02.74.02l4.07.12.75.02v-.75s.02-.22.02-.22c.56-4.04,4.15-6.96,9.63-6.79,2.77.09,4.93.9,6.38,2.19,1.44,1.29,2.25,3.11,2.2,5.37-.08,4.27-3.75,7.45-9.38,7.28l-5.12-.16-.75-.02-.02.75-.06,3.5-.02.75.75.02,5.39.16c3.45.1,6.11,1.01,7.88,2.48,1.75,1.46,2.71,3.53,2.66,6.18-.09,4.65-4.15,8.08-10.31,7.9-6.15-.19-9.89-3.47-10.42-7.8v-.21l.02-.75-.75-.02-4.08-.12-.75-.02v.75s-.02.39-.02.39Z"/>
        <path class="cls-3" d="m925.13,864.8l11.01-6.76-.7,37.94v.75s.74.02.74.02l4.1.12.75.02v-.75s.83-43.97.83-43.97v-.75s-.74-.02-.74-.02l-4.1-.12h-.23s-.19.12-.19.12l-12.19,7.83-.33.21v.4s-.09,4.29-.09,4.29l-.03,1.38,1.17-.72Z"/>
        <path class="cls-3" d="m948.75,886.37v.75s.74.02.74.02l21.84.67-.17,8.98v.75s.74.02.74.02l4.07.12.75.02v-.75s.18-9.11.18-9.11l5.82.18.75.02v-.75s.08-3.63.08-3.63v-.75s-.74-.02-.74-.02l-5.82-.18.54-29.47v-.75s-.74-.02-.74-.02l-6.17-.19h-.4s-.23.31-.23.31l-21.05,29.6-.13.19v.23s-.07,3.76-.07,3.76Zm6.5-4.32l16.61-23.12-.43,23.61-16.17-.49Z"/>
        <path class="cls-3" d="m2704.21,1777.83l11.01-6.76-.7,37.94v.75s.74.02.74.02l4.1.13.75.02v-.75s.82-43.97.82-43.97l.02-.75-.75-.02-4.1-.12h-.24s-.19.11-.19.11l-12.19,7.83-.33.22v.39s-.09,4.29-.09,4.29l-.02,1.39,1.17-.72Z"/>
        <path class="cls-3" d="m2729.55,1798.15v.09c.71,7.21,7.03,12.69,15.35,13.08h.02c9.43.29,16.5-5.89,16.67-15.05.17-8.86-6.37-15.49-15.19-15.76-3.82-.11-7.45,1.06-10,3.37l1.66-13.55,20.49.63.75.02v-.75s.08-3.76.08-3.76v-.75s-.74-.03-.74-.03l-24.71-.75-.68-.02-.08.67-2.82,24.59-.09.82.83.03,3.81.11.46.02.21-.41c.36-.66.96-1.36,1.61-1.96h0s0-.02,0-.02c2.13-2.11,4.98-3.25,8.33-3.15,6.04.19,10.34,4.67,10.23,10.6-.11,5.93-4.57,10.15-10.74,9.96-5.33-.16-9.34-3.68-9.89-7.91v-.21s.02-.75.02-.75l-.75-.02-4.08-.13-.74-.02-.02.75v.26Z"/>
        <path class="cls-3" d="m2545.27,1733.75l11.01-6.76-.7,37.94v.75s.74.02.74.02l4.1.13.75.02v-.75s.82-43.97.82-43.97l.02-.75-.75-.02-4.1-.12h-.23s-.2.11-.2.11l-12.19,7.83-.33.22v.39s-.09,4.29-.09,4.29l-.02,1.39,1.17-.72Z"/>
        <path class="cls-3" d="m2603.02,1732.07v-.17c-1.43-6.51-7.05-11.31-14.86-11.55-5.5-.17-9.98,2.02-13.09,6.22-3.09,4.16-4.8,10.26-4.94,17.87-.14,7.78,1.8,13.4,4.96,17.1,3.17,3.7,7.49,5.39,11.95,5.46,9.19.28,16.24-6.18,16.41-15.18.16-8.73-6.37-15.48-15.19-15.75-5.36-.17-9.91,2.21-12.45,5.76.31-4.46,1.35-8.43,3.17-11.34,2.02-3.22,4.98-5.13,9.08-5,4.71.14,8.14,2.79,9.15,6.61v.02s.01.02.01.02l.13.39.16.52h.54s4.2.14,4.2.14l.75.02v-.75s.02-.39.02-.39Zm-5.28,19.71c-.11,5.82-4.72,10.27-10.61,10.09-6.01-.18-10.47-5.03-10.36-10.99.11-5.51,4.8-9.75,10.74-9.57,6.04.18,10.34,4.67,10.23,10.47Z"/>
        <path class="cls-3" d="m2411.72,1697.58l11.01-6.77-.7,37.95v.75s.74.02.74.02l4.1.13.75.02v-.75s.82-43.97.82-43.97l.02-.75-.75-.02-4.1-.13h-.23l-.2.12-12.19,7.83-.33.21v.4s-.09,4.29-.09,4.29l-.02,1.39,1.17-.72Z"/>
        <path class="cls-3" d="m2437.67,1689.71l23.49.84-20.79,38.29-.59,1.07,1.23.04,4.47.14h.46s.22-.39.22-.39l21.11-39.36.09-.16v-.18l.07-3.89.02-.75-.75-.03-28.93-.88-.75-.02v.75s-.08,3.76-.08,3.76v.75s.73.02.73.02Z"/>
        <path class="cls-3" d="m2269.09,1603.77l11.01-6.76-.7,37.95v.75s.74.02.74.02l4.1.12.75.03v-.75s.83-43.97.83-43.97v-.75s-.74-.02-.74-.02l-4.1-.13h-.23s-.2.12-.2.12l-12.19,7.83-.33.21v.4s-.09,4.29-.09,4.29l-.02,1.38,1.17-.72Z"/>
        <path class="cls-3" d="m2302.23,1612.24c-5,1.65-8.48,5.91-8.57,11.18-.15,7.97,6.97,13.56,16.4,13.85,9.45.29,16.62-4.87,16.77-12.83.09-5.28-3.13-9.64-8.13-11.66,4.13-1.64,6.86-5.06,6.94-9.55.13-7.17-6.05-12.36-14.72-12.62-8.66-.27-15.17,4.53-15.3,11.71-.08,4.39,2.54,7.96,6.61,9.92Zm8.1,3.09c3.29.1,5.99,1.09,7.84,2.63,1.84,1.53,2.87,3.62,2.83,6.04-.05,2.42-1.15,4.44-3.05,5.86-1.9,1.42-4.64,2.24-7.92,2.14-6.58-.2-10.75-4.03-10.66-8.79.08-4.62,4.36-8.08,10.96-7.88Zm.5-19.72c2.82.09,5.12.96,6.7,2.32,1.56,1.36,2.44,3.22,2.4,5.39-.07,3.98-3.83,7.05-9.37,6.88-5.8-.17-9.31-3.47-9.24-7.45.08-4.12,3.86-7.31,9.51-7.14Z"/>
        <path class="cls-3" d="m2112.39,1547.74l11.02-6.76-.7,37.94-.02.75.75.03,4.1.12.75.02.02-.75.81-43.96v-.75s-.74-.03-.74-.03l-4.1-.12h-.23s-.19.12-.19.12l-12.19,7.83-.34.21v.4l-.08,4.29-.03,1.38,1.17-.72Z"/>
        <path class="cls-3" d="m2138.36,1569.37v.09l.02.09c1.41,6.51,7.04,11.31,14.85,11.55,5.5.16,9.97-2.02,13.09-6.22,3.09-4.17,4.79-10.26,4.93-17.88.14-7.71-1.76-13.32-4.9-17.04-3.15-3.72-7.48-5.44-12-5.52-9.2-.27-16.25,6.19-16.41,15.18-.16,8.73,6.37,15.49,15.18,15.76,5.35.16,9.89-2.2,12.43-5.73-.36,4.45-1.4,8.41-3.2,11.31-2,3.22-4.93,5.13-9.03,5-4.7-.14-8.14-2.8-9.15-6.61v-.04s-.13-.39-.13-.39l-.16-.52h-.54s-4.21-.14-4.21-.14l-.75-.03v.75s-.02.39-.02.39Zm15.9-29.79c6.01.18,10.46,5.03,10.35,10.99-.1,5.51-4.79,9.75-10.73,9.57-6.04-.19-10.34-4.67-10.24-10.47.11-5.82,4.73-10.27,10.62-10.09Z"/>
        <path class="cls-3" d="m1955.93,1519.23l-.21.22v.3s-.06,2.85-.06,2.85v.75s.73.03.73.03l29.06.89.75.02.02-.75.07-3.77v-.75s-.74-.02-.74-.02l-21.5-.66,10.93-10.73h0c8.03-7.79,10.56-11.55,10.65-16.56.13-7.24-5.97-13.01-14.19-13.27-8.22-.25-15.04,5.25-15.33,13h0v.27l-.02.75.75.03,4.08.12.75.03v-.75s.02-.25.02-.25c.21-4.59,4.22-8.23,9.79-8.06,5.02.16,8.52,3.74,8.44,8.21-.03,1.76-.39,3.24-1.52,5.04-1.15,1.85-3.11,4.04-6.38,7.18h-.01s-16.08,15.88-16.08,15.88Z"/>
        <path class="cls-3" d="m2007.57,1478.52c-5.24-.16-9.52,2.01-12.49,6.04-2.95,4-4.59,9.8-4.72,16.91-.13,7.04,1.29,12.9,4.1,17.06,2.82,4.19,7.01,6.62,12.25,6.78s9.52-2.01,12.49-6.02c2.95-3.99,4.59-9.76,4.72-16.8v-.13c.13-7.04-1.29-12.9-4.09-17.06-2.82-4.19-7.02-6.62-12.26-6.78Zm-.09,5.26c3.39.11,6.09,1.82,7.95,4.94,1.87,3.16,2.89,7.77,2.79,13.6-.11,5.76-1.27,10.34-3.25,13.43-1.96,3.06-4.72,4.66-8.17,4.56-3.45-.11-6.15-1.85-7.99-4.99-1.87-3.17-2.86-7.79-2.75-13.55v-.13c.11-5.76,1.3-10.31,3.29-13.36,1.98-3.03,4.74-4.6,8.13-4.5Z"/>
        <path class="cls-3" d="m1801.45,1468.6l-.21.22v.3s-.06,2.85-.06,2.85v.75s.74.03.74.03l29.06.89.75.02v-.75s.08-3.77.08-3.77v-.75s-.74-.02-.74-.02l-21.49-.66,10.92-10.73h0c8.03-7.79,10.56-11.55,10.65-16.56.14-7.24-5.96-13.01-14.19-13.27-8.21-.25-15.04,5.25-15.32,13h0v.02s-.01.26-.01.26v.75s.74.02.74.02l4.07.12.75.03.02-.75v-.25c.21-4.59,4.22-8.23,9.79-8.06,5.02.16,8.52,3.74,8.44,8.21-.03,1.76-.39,3.24-1.52,5.05-1.15,1.84-3.1,4.03-6.38,7.17h-.01s-16.08,15.88-16.08,15.88Z"/>
        <path class="cls-3" d="m1837.21,1442.06l11.01-6.76-.7,37.94-.02.75.75.03,4.11.12.74.02.02-.75.81-43.96v-.75s-.74-.03-.74-.03l-4.1-.12h-.23s-.19.12-.19.12l-12.19,7.83-.33.21v.4s-.09,4.29-.09,4.29l-.03,1.38,1.18-.72Z"/>
        <path class="cls-3" d="m1649.31,1418.29l-.21.21v.31s-.06,2.85-.06,2.85v.75s.74.02.74.02l29.06.89.75.03v-.75s.08-3.77.08-3.77v-.75s-.74-.02-.74-.02l-21.49-.66,10.92-10.73h.01c8.02-7.79,10.55-11.55,10.64-16.57.14-7.24-5.96-13.01-14.18-13.26s-15.05,5.25-15.33,13h0s0,.27,0,.27v.75s.74.02.74.02l4.07.13.75.02.02-.75v-.25c.21-4.58,4.22-8.22,9.79-8.05,5.03.15,8.52,3.74,8.44,8.21-.03,1.76-.39,3.23-1.51,5.04-1.16,1.85-3.11,4.04-6.39,7.18h-.01s-16.08,15.88-16.08,15.88Z"/>
        <path class="cls-3" d="m1684.53,1419.12l-.22.22v.3l-.06,2.85v.75s.74.03.74.03l29.06.88.75.03v-.75s.08-3.77.08-3.77l.02-.75-.75-.02-21.5-.66,10.93-10.73h0c8.02-7.79,10.55-11.55,10.65-16.56.13-7.24-5.97-13.01-14.19-13.27-8.22-.25-15.05,5.25-15.33,13h0v.27s-.02.75-.02.75l.75.03,4.08.12.75.03v-.75s.01-.25.01-.25c.21-4.59,4.22-8.23,9.8-8.06,5.02.16,8.52,3.74,8.43,8.21-.03,1.76-.38,3.24-1.51,5.04-1.15,1.85-3.11,4.04-6.39,7.18h0s-16.08,15.88-16.08,15.88Z"/>
        <path class="cls-3" d="m1511.31,1371.71l-.21.21v.3s-.06,2.86-.06,2.86v.75s.74.02.74.02l29.05.89.75.02.02-.75.07-3.77v-.75s-.74-.02-.74-.02l-21.49-.66,10.92-10.73h0c8.03-7.79,10.56-11.55,10.65-16.56.14-7.24-5.96-13.01-14.19-13.26-8.22-.26-15.04,5.24-15.33,12.99h0v1.03s.74.02.74.02l4.07.12.75.03v-.75s.02-.25.02-.25c.21-4.59,4.22-8.23,9.79-8.06,5.02.16,8.52,3.74,8.44,8.21-.03,1.76-.39,3.24-1.52,5.05-1.15,1.84-3.11,4.03-6.38,7.17h-.01s-16.08,15.89-16.08,15.89Z"/>
        <path class="cls-3" d="m1545.54,1364.98v.07c.57,7.24,6.67,12.57,15.77,12.72,9.09.27,16.1-5.18,16.25-12.98.06-3.31-1.08-6.11-3.14-8.18-1.44-1.43-3.29-2.49-5.45-3.12,4.38-1.65,7.31-5.15,7.4-10.04.13-7.04-5.92-12.1-14.33-12.36-8.47-.26-14.47,4.6-15.3,11.77v.04s-.01.03-.01.03v.26l-.02.75.75.03,4.08.12.75.02v-.75s.02-.21.02-.21c.56-4.04,4.15-6.96,9.63-6.79,2.76.08,4.93.89,6.38,2.19,1.44,1.28,2.24,3.11,2.2,5.37-.08,4.27-3.75,7.45-9.38,7.28l-5.13-.16-.75-.02v.75s-.07,3.5-.07,3.5l-.02.75.75.02,5.39.17c3.44.1,6.1,1,7.88,2.48,1.75,1.46,2.7,3.53,2.65,6.18-.08,4.65-4.14,8.09-10.31,7.9-6.15-.19-9.88-3.48-10.42-7.81v-.2s.02-.75.02-.75l-.75-.03-4.07-.12-.75-.02-.02.75v.39Z"/>
        <path class="cls-3" d="m1375.46,1327.91l-.21.21v.3s-.06,2.86-.06,2.86v.75s.74.02.74.02l29.06.89.75.02v-.75s.08-3.76.08-3.76v-.75s-.74-.02-.74-.02l-21.49-.66,10.92-10.73h.01c8.02-7.8,10.55-11.55,10.64-16.57.14-7.24-5.96-13.01-14.18-13.26-8.22-.25-15.05,5.25-15.33,13h0s-.01.27-.01.27v.75s.74.02.74.02l4.07.13.75.02.02-.75v-.25c.21-4.59,4.22-8.22,9.79-8.05,5.03.15,8.52,3.73,8.44,8.21-.03,1.75-.39,3.23-1.51,5.04-1.16,1.85-3.11,4.04-6.39,7.18h-.01s-16.08,15.88-16.08,15.88Z"/>
        <path class="cls-3" d="m1407.33,1322.15l-.02.75.75.02,21.84.67-.16,8.98-.02.75.75.02,4.07.12.75.03.02-.75.17-9.11,5.81.18.75.02.02-.75.06-3.63.02-.75-.75-.03-5.82-.17.54-29.48.02-.75-.75-.02-6.18-.19h-.39s-.23.31-.23.31l-21.05,29.6-.13.19v.23s-.07,3.76-.07,3.76Zm6.49-4.19l16.61-23.12-.43,23.62-16.18-.5Z"/>
        <path class="cls-3" d="m1237.35,1286.02l-.21.21v.3s-.06,2.86-.06,2.86v.75s.74.02.74.02l29.05.89.75.02.02-.75.07-3.76v-.75s-.74-.02-.74-.02l-21.49-.66,10.92-10.73h0c8.03-7.8,10.56-11.56,10.65-16.57.14-7.24-5.96-13.01-14.19-13.26-8.21-.25-15.04,5.25-15.32,13h0s-.01.27-.01.27v.75s.74.02.74.02l4.07.13.75.02.02-.75v-.25c.21-4.59,4.22-8.22,9.79-8.05,5.02.15,8.52,3.73,8.44,8.21-.03,1.75-.39,3.23-1.52,5.04-1.15,1.84-3.1,4.04-6.38,7.18h-.01l-16.08,15.88Z"/>
        <path class="cls-3" d="m1271.97,1279.17v.07c.57,7.23,6.91,12.71,15.36,13.1h.01c9.44.29,16.51-5.89,16.67-15.05.17-8.86-6.37-15.49-15.19-15.76-3.82-.11-7.45,1.06-10,3.37l1.66-13.55,20.49.63.75.02v-.75s.08-3.76.08-3.76l.02-.75-.75-.03-24.72-.75-.68-.02-.07.68-2.82,24.58-.1.82.83.03,3.81.11.46.02.22-.41c.35-.66.96-1.36,1.6-1.96h.01v-.02c2.13-2.11,4.98-3.25,8.33-3.15,6.04.19,10.34,4.67,10.24,10.61-.11,5.93-4.58,10.14-10.75,9.96-5.33-.17-9.34-3.69-9.89-7.92v-.21s.02-.75.02-.75l-.75-.02-4.07-.12-.75-.03-.02.75v.26Z"/>
        <path class="cls-3" d="m1099.7,1241.14l-.22.21v.3l-.05,2.86-.02.75.75.02,29.06.89.75.02v-.75s.08-3.76.08-3.76l.02-.75-.75-.03-21.5-.65,10.93-10.73h0c8.02-7.8,10.56-11.56,10.65-16.57.13-7.24-5.97-13.01-14.19-13.26s-15.05,5.25-15.33,13h0v.27l-.02.75.75.02,4.08.12.75.02v-.75s.02-.25.02-.25c.21-4.59,4.22-8.22,9.79-8.05,5.02.15,8.52,3.74,8.44,8.21-.04,1.76-.39,3.23-1.52,5.04-1.15,1.85-3.11,4.04-6.38,7.18h-.01s-16.08,15.89-16.08,15.89Z"/>
        <path class="cls-3" d="m1166.99,1212.3v-.17c-1.43-6.51-7.05-11.31-14.86-11.55-5.5-.17-9.98,2.02-13.09,6.21-3.09,4.17-4.8,10.26-4.94,17.88-.14,7.72,1.8,13.33,4.96,17.04,3.16,3.72,7.49,5.45,11.95,5.52,9.19.28,16.24-6.18,16.41-15.18.16-8.73-6.37-15.49-15.19-15.76-5.36-.16-9.91,2.21-12.45,5.76.31-4.46,1.35-8.43,3.17-11.34,2.02-3.22,4.98-5.13,9.08-5.01,4.71.14,8.14,2.8,9.15,6.62v.02s.01.02.01.02l.13.39.16.52.54.02,4.2.13.75.02.02-.75v-.39Zm-5.28,19.7c-.11,5.82-4.72,10.28-10.61,10.1-6.01-.19-10.47-5.04-10.36-11,.11-5.51,4.8-9.75,10.74-9.57,6.04.18,10.34,4.66,10.23,10.46Z"/>
        <path class="cls-3" d="m969.88,1179.61l-.22.21v.3s-.06,2.86-.06,2.86v.75s.74.02.74.02l29.06.89.75.02v-.75s.08-3.76.08-3.76v-.75s-.74-.02-.74-.02l-21.49-.66,10.93-10.73s0,0,0,0c8.02-7.79,10.56-11.55,10.65-16.57.13-7.24-5.97-13.01-14.19-13.26-8.22-.25-15.05,5.25-15.33,13h0s0,.27,0,.27v.75s.73.02.73.02l4.08.12.75.02v-.75s.02-.25.02-.25c.21-4.59,4.22-8.22,9.79-8.05,5.02.15,8.52,3.74,8.44,8.21-.03,1.76-.39,3.24-1.52,5.04-1.15,1.84-3.11,4.04-6.38,7.18h0s-16.08,15.88-16.08,15.88Z"/>
        <path class="cls-3" d="m1004.86,1144.44l23.49.84-20.8,38.28-.58,1.08,1.23.04,4.47.14h.46s.21-.39.21-.39l21.12-39.36.08-.16v-.18s.08-3.9.08-3.9v-.75s-.74-.02-.74-.02l-28.92-.88-.75-.02-.02.75-.07,3.76v.75s.74.03.74.03Z"/>
        <path class="cls-3" d="m918.24,1316.45l-.21.21v.3s-.06,2.86-.06,2.86v.75s.74.02.74.02l29.06.89.75.02v-.75s.08-3.76.08-3.76v-.75s-.74-.03-.74-.03l-21.5-.65,10.93-10.73h0c8.02-7.8,10.56-11.56,10.65-16.57.13-7.24-5.97-13.01-14.19-13.26-8.22-.26-15.05,5.24-15.33,12.99h0v.28s-.02.75-.02.75l.75.02,4.08.12.75.03v-.75s.02-.25.02-.25c.21-4.59,4.22-8.23,9.79-8.06,5.02.16,8.52,3.74,8.44,8.21-.03,1.76-.39,3.24-1.52,5.05-1.15,1.84-3.11,4.03-6.38,7.17h0s-16.08,15.89-16.08,15.89Z"/>
        <path class="cls-3" d="m960.92,1297.62c-5,1.65-8.48,5.91-8.57,11.18-.15,7.97,6.97,13.56,16.41,13.85,9.44.29,16.62-4.87,16.76-12.84.1-5.28-3.12-9.64-8.12-11.66,4.13-1.63,6.85-5.05,6.94-9.54.13-7.17-6.05-12.36-14.72-12.62-8.66-.27-15.17,4.53-15.3,11.7-.08,4.4,2.54,7.97,6.61,9.93Zm8.24,3.09c3.28.11,5.98,1.09,7.84,2.63,1.84,1.53,2.87,3.62,2.82,6.04-.04,2.42-1.15,4.44-3.04,5.86-1.91,1.42-4.64,2.24-7.92,2.14-6.58-.2-10.75-4.03-10.66-8.79.08-4.62,4.36-8.08,10.97-7.88Zm.49-19.72c2.82.09,5.12.96,6.7,2.33,1.56,1.35,2.45,3.21,2.41,5.38-.08,4.1-3.82,7.05-9.37,6.89-5.8-.18-9.31-3.48-9.24-7.46.08-4.12,3.86-7.31,9.51-7.14Z"/>
        <path class="cls-3" d="m877.05,1463.58l-.21.21v.3s-.06,2.86-.06,2.86v.75s.74.02.74.02l29.06.89.75.02v-.75s.08-3.76.08-3.76v-.75s-.74-.02-.74-.02l-21.5-.66,10.93-10.73h0c8.02-7.8,10.56-11.56,10.65-16.57.13-7.24-5.97-13.01-14.19-13.26-8.22-.25-15.05,5.25-15.33,13h0s0,.27,0,.27v.75s.74.02.74.02l4.08.13.75.02v-.75s.02-.25.02-.25c.21-4.59,4.22-8.22,9.79-8.05,5.02.15,8.52,3.73,8.44,8.21-.03,1.75-.39,3.23-1.52,5.04-1.15,1.84-3.11,4.04-6.38,7.18h0l-16.08,15.88Z"/>
        <path class="cls-3" d="m912.3,1458.04v.09s.02.09.02.09c1.41,6.51,7.04,11.31,14.85,11.54,5.49.17,9.97-2.01,13.09-6.21,3.09-4.17,4.8-10.26,4.94-17.88.14-7.71-1.76-13.33-4.91-17.04-3.15-3.72-7.48-5.45-12-5.52-9.19-.28-16.24,6.18-16.41,15.18-.16,8.73,6.37,15.49,15.19,15.76,5.34.16,9.88-2.2,12.43-5.73-.36,4.45-1.4,8.41-3.2,11.31-2,3.21-4.93,5.13-9.03,5-4.71-.14-8.14-2.8-9.15-6.62h0s0-.03,0-.03l-.12-.39-.16-.52-.54-.02-4.21-.12-.75-.03v.75s-.02.39-.02.39Zm16.03-29.79c6.01.18,10.46,5.03,10.35,10.99-.1,5.51-4.92,9.75-10.73,9.57-6.04-.18-10.34-4.67-10.23-10.47.11-5.82,4.72-10.27,10.61-10.09Z"/>
        <path class="cls-3" d="m1036.43,1477.82v.07c.58,7.24,6.67,12.57,15.78,12.72,9.09.27,16.1-5.18,16.24-12.98.06-3.31-1.08-6.11-3.14-8.17-1.43-1.44-3.29-2.5-5.44-3.13,4.38-1.65,7.31-5.15,7.4-10.04.13-7.04-5.92-12.1-14.34-12.36-8.47-.25-14.46,4.6-15.3,11.77v.34s-.02.75-.02.75l.75.02,4.07.12.75.03.02-.75v-.22c.57-4.04,4.16-6.96,9.64-6.79,2.76.08,4.92.89,6.38,2.19,1.43,1.29,2.24,3.11,2.2,5.37-.08,4.27-3.75,7.45-9.38,7.28l-5.13-.16-.75-.02v.75s-.08,3.5-.08,3.5v.75s.74.03.74.03l5.39.16c3.44.1,6.1,1.01,7.87,2.48,1.75,1.46,2.71,3.54,2.66,6.18-.08,4.65-4.14,8.09-10.31,7.9-6.15-.19-9.88-3.48-10.42-7.8v-.21l.02-.75-.75-.02-4.08-.13-.75-.02v.75s-.02.39-.02.39Z"/>
        <path class="cls-3" d="m1089.97,1444.82c-5.24-.16-9.52,2-12.49,6.04-2.95,4-4.59,9.8-4.72,16.9-.13,7.04,1.29,12.9,4.1,17.07,2.82,4.19,7.01,6.62,12.25,6.78,5.24.16,9.52-2.01,12.49-6.03,2.96-3.98,4.59-9.75,4.72-16.79v-.13c.13-7.04-1.29-12.9-4.09-17.06-2.82-4.2-7.02-6.62-12.26-6.78Zm-.09,5.26c3.39.1,6.09,1.81,7.95,4.94,1.87,3.16,2.89,7.77,2.79,13.59-.11,5.77-1.27,10.35-3.25,13.44-1.96,3.06-4.72,4.66-8.17,4.55-3.45-.1-6.15-1.84-7.99-4.98-1.87-3.17-2.85-7.79-2.75-13.55v-.13c.11-5.76,1.3-10.31,3.29-13.37,1.98-3.02,4.74-4.59,8.13-4.49Z"/>
        <path class="cls-3" d="m1183.7,1507.79v.07c.29,3.59,1.9,6.75,4.64,9.02,2.73,2.27,6.53,3.63,11.14,3.7,9.09.28,16.1-5.18,16.24-12.98.06-3.31-1.08-6.11-3.14-8.17-1.43-1.44-3.29-2.5-5.44-3.13,4.38-1.64,7.3-5.15,7.39-10.04.13-7.04-5.92-12.1-14.33-12.35-8.47-.26-14.47,4.59-15.3,11.77v.33s-.02.75-.02.75l.75.02,4.07.12.75.03.02-.75v-.22c.57-4.04,4.16-6.96,9.63-6.79,2.77.09,4.93.9,6.38,2.19,1.44,1.29,2.25,3.11,2.21,5.37-.08,4.28-3.76,7.45-9.38,7.28l-5.13-.16-.75-.02-.02.75-.06,3.5v.75s.74.03.74.03l5.39.16c3.44.11,6.1,1.01,7.87,2.48,1.75,1.46,2.71,3.54,2.66,6.18-.09,4.66-4.15,8.09-10.31,7.9-6.15-.19-9.88-3.47-10.42-7.8v-.21l.02-.75-.75-.02-4.08-.13-.75-.02v.75s-.02.39-.02.39Z"/>
        <path class="cls-3" d="m1221.23,1488.83l11.01-6.77-.7,37.95v.75s.74.02.74.02l4.1.13.75.02v-.75s.82-43.97.82-43.97l.02-.75-.75-.02-4.1-.13h-.24l-.19.12-12.19,7.83-.33.21v.4s-.09,4.29-.09,4.29l-.02,1.39,1.17-.72Z"/>
        <path class="cls-3" d="m1320.53,1532.43v.03s0,.04,0,.04c.57,7.24,6.67,12.57,15.77,12.72,9.09.27,16.1-5.18,16.24-12.98.06-3.31-1.08-6.11-3.14-8.18-1.43-1.43-3.29-2.49-5.44-3.12,4.38-1.65,7.31-5.15,7.4-10.04.13-7.04-5.92-12.1-14.33-12.36-8.47-.26-14.47,4.6-15.3,11.77v.04s-.01.03-.01.03v.26l-.02.75.75.03,4.08.12.75.02v-.75s.01-.21.01-.21c.57-4.04,4.16-6.96,9.64-6.79,2.76.08,4.93.89,6.38,2.19,1.44,1.28,2.24,3.1,2.2,5.37-.08,4.27-3.75,7.45-9.38,7.28l-5.13-.16-.75-.02v.75s-.08,3.5-.08,3.5v.75s.74.02.74.02l5.39.17c3.44.1,6.1,1,7.87,2.48,1.75,1.46,2.71,3.53,2.66,6.18-.08,4.65-4.14,8.08-10.31,7.9-6.15-.19-9.88-3.48-10.42-7.81v-.2s.02-.75.02-.75l-.75-.03-4.07-.12-.75-.02-.02.75v.39Z"/>
        <path class="cls-3" d="m1357.77,1540.97l-.22.22v.3l-.06,2.86v.75s.74.02.74.02l29.06.89.75.02v-.75s.08-3.77.08-3.77l.02-.75-.75-.02-21.5-.66,10.93-10.73h0c8.02-7.79,10.55-11.55,10.65-16.56.13-7.24-5.97-13.01-14.19-13.27-8.22-.25-15.05,5.25-15.33,13h0v.28s-.02.75-.02.75l.75.02,4.08.12.75.03v-.75s.01-.25.01-.25c.21-4.59,4.22-8.23,9.8-8.06,5.02.16,8.52,3.74,8.44,8.21-.04,1.76-.39,3.24-1.52,5.05-1.15,1.84-3.11,4.03-6.39,7.17h0s-16.08,15.88-16.08,15.88Z"/>
        <path class="cls-3" d="m1458,1562.69v.07c.28,3.58,1.9,6.74,4.64,9.02,2.73,2.27,6.53,3.62,11.14,3.7,9.09.27,16.09-5.18,16.24-12.98.06-3.31-1.08-6.11-3.14-8.17-1.44-1.44-3.29-2.5-5.44-3.13,4.38-1.65,7.3-5.15,7.39-10.04.13-7.04-5.92-12.1-14.33-12.36-8.47-.25-14.47,4.6-15.3,11.77v.08s-.01.26-.01.26v.75s.74.02.74.02l4.07.12.75.03v-.75s.02-.22.02-.22c.56-4.04,4.15-6.96,9.63-6.79,2.77.08,4.93.89,6.38,2.19,1.44,1.29,2.25,3.11,2.2,5.37-.08,4.27-3.75,7.45-9.38,7.28l-5.12-.16-.75-.02-.02.75-.06,3.5-.02.75.75.03,5.39.16c3.45.11,6.11,1.01,7.88,2.48,1.75,1.46,2.71,3.54,2.66,6.18-.09,4.65-4.15,8.09-10.31,7.9-6.15-.19-9.89-3.48-10.42-7.8v-.21l.02-.75-.75-.02-4.08-.13-.75-.02v.75s-.02.39-.02.39Z"/>
        <path class="cls-3" d="m1494.13,1563.54v.08c.57,7.24,6.67,12.57,15.77,12.71,9.09.28,16.1-5.18,16.25-12.98.06-3.3-1.08-6.11-3.14-8.17-1.44-1.44-3.29-2.49-5.45-3.13,4.38-1.64,7.31-5.14,7.4-10.03.13-7.04-5.92-12.1-14.33-12.36-8.47-.26-14.47,4.59-15.3,11.77v.03s-.01.04-.01.04v.26l-.02.75.75.02,4.08.13.75.02v-.75s.02-.21.02-.21c.56-4.05,4.15-6.96,9.63-6.8,2.76.09,4.93.9,6.38,2.2,1.44,1.28,2.24,3.1,2.2,5.37-.08,4.27-3.75,7.44-9.38,7.27l-5.13-.15-.75-.03v.75s-.07,3.51-.07,3.51l-.02.75.75.02,5.39.16c3.44.11,6.1,1.01,7.88,2.49,1.75,1.45,2.7,3.53,2.65,6.18-.08,4.65-4.14,8.08-10.31,7.89-6.15-.18-9.88-3.47-10.42-7.8v-.21s.02-.75.02-.75l-.75-.02-4.07-.12-.75-.03-.02.75v.39Z"/>
        <path class="cls-3" d="m1605.19,1590.57v.09c.71,7.21,6.64,12.69,15.78,12.7,9.09.27,16.09-5.18,16.24-12.98.06-3.31-1.08-6.11-3.14-8.17-1.44-1.44-3.29-2.5-5.45-3.13,4.38-1.64,7.31-5.15,7.4-10.04.13-7.04-5.92-12.1-14.33-12.35-8.47-.26-14.47,4.59-15.3,11.77v.03s-.01.04-.01.04v.26l-.02.75.75.02,4.08.13.75.02v-.75s.02-.22.02-.22c.56-4.04,4.15-6.96,9.63-6.79,2.76.09,4.93.9,6.38,2.19,1.44,1.29,2.24,3.11,2.2,5.38-.08,4.27-3.75,7.44-9.38,7.27l-5.13-.16-.75-.02v.75s-.07,3.51-.07,3.51l-.02.75.75.02,5.39.16c3.44.11,6.1,1.01,7.88,2.48,1.75,1.46,2.7,3.54,2.65,6.19-.08,4.65-4.14,8.08-10.31,7.89-6.15-.19-9.88-3.47-10.41-7.8v-.96s-.74-.02-.74-.02l-4.07-.13-.75-.02-.02.75v.39Z"/>
        <path class="cls-3" d="m1640.9,1592.57v.75s.74.02.74.02l21.84.67-.17,8.98v.75s.74.02.74.02l4.07.12.75.03.02-.75.16-9.11,5.82.18.75.02v-.75s.08-3.63.08-3.63v-.75s-.73-.03-.73-.03l-5.82-.17.54-29.48v-.75s-.74-.02-.74-.02l-6.17-.19h-.4s-.22.31-.22.31l-21.05,29.6-.13.19v.23s-.08,3.76-.08,3.76Zm6.5-4.32l16.61-23.12-.43,23.62-16.18-.5Z"/>
        <path class="cls-3" d="m1756.32,1622.72v.07c.57,7.24,6.66,12.71,15.78,12.72,9.09.28,16.09-5.18,16.24-12.98.06-3.31-1.08-6.11-3.14-8.17-1.44-1.44-3.29-2.49-5.44-3.13,4.38-1.64,7.3-5.14,7.39-10.03.13-7.05-5.92-12.1-14.33-12.36-8.47-.26-14.47,4.59-15.3,11.77v.33s-.02.75-.02.75l.75.02,4.07.13.75.02v-.75s.02-.22.02-.22c.57-4.04,4.16-6.95,9.63-6.79,2.77.09,4.93.9,6.38,2.19,1.44,1.29,2.25,3.11,2.2,5.38-.07,4.27-3.75,7.44-9.38,7.27l-5.12-.16-.75-.02-.02.75-.06,3.51v.75s.73.02.73.02l5.39.16c3.45.11,6.11,1.01,7.88,2.49,1.75,1.45,2.71,3.53,2.66,6.18-.09,4.65-4.15,8.08-10.31,7.89-6.15-.19-9.89-3.47-10.42-7.8v-.21l.02-.75-.75-.02-4.08-.12-.75-.03v.75s-.02.39-.02.39Z"/>
        <path class="cls-3" d="m1793.49,1623.6v.08c.57,7.23,6.91,12.7,15.35,13.09h.02c9.44.29,16.51-5.89,16.67-15.04.17-8.87-6.37-15.49-15.19-15.76-3.82-.12-7.45,1.05-10,3.37l1.66-13.56,20.49.63.75.02v-.75s.08-3.76.08-3.76v-.75s-.74-.02-.74-.02l-24.71-.76-.68-.02-.07.68-2.82,24.58-.1.82.83.03,3.81.12h.46s.21-.4.21-.4c.36-.66.96-1.35,1.61-1.96h0c2.13-2.13,4.98-3.27,8.33-3.16,6.04.18,10.34,4.66,10.23,10.6-.1,5.93-4.57,10.15-10.74,9.96-5.33-.17-9.34-3.69-9.89-7.92v-.21s.02-.75.02-.75l-.75-.02-4.07-.12-.75-.03-.02.75v.26Z"/>
        <path class="cls-3" d="m1910.78,1657.43v.07c.57,7.24,6.66,12.71,15.79,12.72,9.08.28,16.09-5.18,16.23-12.98.06-3.31-1.08-6.11-3.14-8.17-1.43-1.44-3.29-2.49-5.44-3.13,4.38-1.64,7.31-5.15,7.4-10.04.13-7.04-5.92-12.1-14.34-12.35-8.47-.26-14.46,4.59-15.3,11.77v.33s-.02.75-.02.75l.75.02,4.07.13.75.02.02-.75v-.22c.57-4.04,4.16-6.96,9.64-6.79,2.76.09,4.92.9,6.38,2.19,1.43,1.29,2.24,3.11,2.2,5.38-.08,4.27-3.75,7.44-9.38,7.27l-5.13-.16-.75-.02v.75s-.08,3.51-.08,3.51v.75s.74.02.74.02l5.39.16c3.44.11,6.1,1.01,7.87,2.48,1.75,1.46,2.71,3.54,2.66,6.19-.08,4.65-4.14,8.08-10.31,7.89-6.15-.19-9.88-3.47-10.42-7.8v-.21l.02-.75-.75-.02-4.08-.13-.75-.02v.75s-.02.39-.02.39Z"/>
        <path class="cls-3" d="m1979.97,1636.31v-.18c-1.43-6.51-7.05-11.31-14.86-11.55-5.5-.16-9.98,2.02-13.09,6.22-3.09,4.17-4.8,10.26-4.94,17.88-.14,7.71,1.8,13.33,4.96,17.04,3.16,3.72,7.49,5.45,11.95,5.52,9.19.27,16.24-6.19,16.41-15.18.16-8.73-6.37-15.49-15.19-15.76-5.36-.16-9.91,2.21-12.45,5.76.32-4.46,1.35-8.43,3.17-11.34,2.02-3.22,4.98-5.13,9.08-5,4.71.14,8.14,2.8,9.15,6.61v.02s.01.02.01.02l.13.39.16.52h.54s4.2.14,4.2.14l.75.03.02-.75v-.39Zm-5.28,19.7c-.11,5.82-4.72,10.27-10.61,10.09-6.01-.18-10.47-5.03-10.36-10.99.11-5.51,4.8-9.75,10.74-9.57,6.04.19,10.34,4.67,10.23,10.47Z"/>
        <path class="cls-3" d="m2076.91,1695.55v.07c.57,7.24,6.67,12.57,15.78,12.72,9.09.27,16.09-5.18,16.24-12.98.06-3.31-1.08-6.11-3.14-8.17-1.44-1.44-3.29-2.5-5.44-3.13,4.38-1.65,7.3-5.15,7.39-10.04.13-7.04-5.92-12.1-14.33-12.36-8.47-.25-14.47,4.6-15.3,11.77v.34s-.02.75-.02.75l.75.02,4.07.12.75.03v-.75s.02-.22.02-.22c.57-4.04,4.16-6.96,9.63-6.79,2.77.08,4.93.89,6.38,2.19,1.44,1.29,2.25,3.11,2.2,5.37-.07,4.27-3.75,7.45-9.38,7.28l-5.12-.16-.75-.02-.02.75-.06,3.5v.75s.73.03.73.03l5.39.16c3.45.11,6.11,1.01,7.88,2.48,1.75,1.46,2.71,3.54,2.66,6.18-.09,4.65-4.15,8.09-10.31,7.9-6.15-.19-9.89-3.48-10.42-7.8v-.21l.02-.75-.75-.02-4.08-.13-.75-.02v.75s-.02.39-.02.39Z"/>
        <path class="cls-3" d="m2113.53,1667.96l23.49.84-20.8,38.28-.58,1.07,1.23.04,4.47.14h.46s.21-.39.21-.39l21.12-39.36.08-.16v-.18s.08-3.89.08-3.89v-.75s-.74-.03-.74-.03l-28.92-.88-.75-.02-.02.75-.07,3.76v.75s.74.03.74.03Z"/>
        <path class="cls-3" d="m2238.08,1728.07v.07c.57,7.24,6.67,12.57,15.78,12.72,9.09.27,16.09-5.18,16.24-12.98.06-3.31-1.08-6.11-3.14-8.18-1.44-1.43-3.29-2.49-5.44-3.12,4.38-1.65,7.3-5.15,7.39-10.04.13-7.04-5.92-12.1-14.33-12.36-8.47-.26-14.47,4.6-15.3,11.77v.33s-.02.75-.02.75l.75.03,4.07.12.75.02v-.75s.02-.21.02-.21c.56-4.04,4.15-6.96,9.63-6.79,2.77.08,4.93.89,6.38,2.19,1.44,1.28,2.25,3.11,2.2,5.37-.08,4.27-3.75,7.45-9.38,7.28l-5.12-.16-.75-.02-.02.75-.06,3.5-.02.75.75.02,5.39.17c3.45.1,6.11,1,7.88,2.48,1.75,1.46,2.71,3.53,2.66,6.18-.09,4.65-4.15,8.09-10.31,7.9-6.15-.19-9.89-3.48-10.42-7.8v-.21l.02-.75-.75-.03-4.08-.12-.75-.02v.75s-.02.39-.02.39Z"/>
        <path class="cls-3" d="m2282.79,1716.82c-5,1.66-8.47,5.92-8.57,11.19-.14,7.97,6.97,13.56,16.41,13.84,9.44.29,16.62-4.87,16.76-12.83.1-5.28-3.12-9.64-8.12-11.66,4.13-1.63,6.85-5.05,6.94-9.54.13-7.17-6.05-12.36-14.72-12.63-8.66-.26-15.17,4.53-15.3,11.71-.08,4.4,2.53,7.97,6.6,9.92Zm8.24,3.1c3.29.1,5.99,1.09,7.84,2.63,1.84,1.53,2.87,3.62,2.82,6.04-.04,2.41-1.15,4.44-3.04,5.86-1.91,1.42-4.64,2.24-7.93,2.14-6.58-.2-10.74-4.03-10.65-8.79.08-4.62,4.36-8.08,10.96-7.88Zm.36-19.72c2.82.08,5.13.96,6.7,2.32,1.57,1.35,2.45,3.21,2.41,5.38-.04,2.1-.98,3.84-2.59,5.05-1.62,1.22-3.96,1.92-6.78,1.84-5.8-.18-9.31-3.48-9.24-7.45.07-4.13,3.85-7.32,9.5-7.14Z"/>
        <path class="cls-3" d="m2687.04,1984.27v.08c.71,7.23,6.66,12.56,15.78,12.71,9.09.27,16.1-5.18,16.24-12.98.06-3.31-1.08-6.11-3.14-8.18-1.43-1.43-3.29-2.49-5.44-3.12,4.38-1.65,7.31-5.15,7.4-10.04.13-7.04-5.92-12.1-14.34-12.36-8.47-.25-14.46,4.6-15.3,11.77v.33s-.02.75-.02.75l.75.03,4.07.12.75.03.02-.75v-.22c.57-4.04,4.16-6.96,9.64-6.79,2.76.08,4.92.89,6.38,2.19,1.43,1.29,2.24,3.11,2.2,5.37-.08,4.27-3.75,7.45-9.38,7.28l-5.13-.16-.75-.02v.75s-.08,3.5-.08,3.5v.75s.74.02.74.02l5.39.17c3.44.1,6.1,1,7.87,2.48,1.75,1.46,2.71,3.54,2.66,6.18-.09,4.65-4.14,8.09-10.31,7.9-6.15-.19-9.88-3.48-10.42-7.8v-.21l.02-.75-.75-.02-4.08-.13-.75-.02v.75s-.02.39-.02.39Z"/>
        <path class="cls-3" d="m2724.46,1986.32v.17c1.43,6.51,7.05,11.31,14.86,11.55,5.5.17,9.98-2.02,13.09-6.21,3.09-4.17,4.8-10.26,4.94-17.88.14-7.72-1.76-13.33-4.91-17.04-3.15-3.72-7.48-5.45-12-5.52-9.19-.28-16.24,6.18-16.41,15.18-.16,8.73,6.37,15.49,15.19,15.76,5.34.16,9.88-2.2,12.43-5.73-.37,4.44-1.4,8.4-3.2,11.3-2,3.22-4.93,5.13-9.03,5.01-4.71-.15-8.14-2.8-9.15-6.62v-.02s-.01-.01-.01-.01l-.13-.4-.16-.51-.54-.02-4.2-.13-.75-.02-.02.75v.39Zm15.89-29.8c6.01.19,10.46,5.04,10.36,10.99-.11,5.52-4.8,9.75-10.74,9.57-6.04-.18-10.34-4.67-10.23-10.47.11-5.81,4.72-10.27,10.61-10.09Z"/>
        <path class="cls-3" d="m2540.38,1973.34l-.02.75.75.02,21.84.67-.16,8.98v.75s.74.02.74.02l4.07.13.75.02v-.75s.18-9.11.18-9.11l5.82.18.74.02.02-.75.07-3.63v-.75s-.74-.02-.74-.02l-5.82-.18.55-29.48v-.75s-.74-.02-.74-.02l-6.17-.19h-.4s-.23.31-.23.31l-21.05,29.6-.13.19v.23l-.07,3.76Zm6.5-4.19l16.6-23.12-.43,23.62-16.17-.5Z"/>
        <path class="cls-3" d="m2595.37,1939.35c-5.24-.16-9.52,2.01-12.5,6.04-2.95,4.01-4.59,9.8-4.72,16.91-.12,6.97,1.3,12.83,4.1,17.01,2.82,4.21,7.01,6.67,12.26,6.83,5.24.16,9.51-2.01,12.49-6.02,2.95-3.99,4.59-9.76,4.72-16.8v-.13c.13-7.04-1.29-12.9-4.1-17.06-2.82-4.19-7.01-6.62-12.25-6.78Zm.03,5.27c3.39.1,6.09,1.81,7.95,4.93,1.88,3.16,2.9,7.78,2.79,13.6-.1,5.7-1.26,10.28-3.24,13.39-1.96,3.08-4.72,4.71-8.17,4.6-3.46-.11-6.16-1.85-8-4.98-1.86-3.18-2.85-7.79-2.74-13.55v-.13c.11-5.76,1.29-10.31,3.29-13.37,1.97-3.03,4.73-4.6,8.12-4.49Z"/>
        <path class="cls-3" d="m2411.46,1962.07l-.02.75.75.02,21.84.67-.16,8.98-.02.75.75.02,4.08.13.75.02v-.75s.18-9.11.18-9.11l5.81.18.75.02.02-.75.06-3.63.02-.75-.75-.02-5.82-.18.54-29.48.02-.75-.75-.02-6.18-.19h-.39s-.23.31-.23.31l-21.05,29.6-.13.19v.23l-.07,3.76Zm6.49-4.19l16.61-23.12-.43,23.62-16.18-.5Z"/>
        <path class="cls-3" d="m2450.43,1942.12l11.01-6.76-.7,37.94v.75s.74.02.74.02l4.1.13.75.02v-.75s.83-43.97.83-43.97v-.75s-.74-.02-.74-.02l-4.1-.12h-.23s-.2.11-.2.11l-12.19,7.83-.33.22v.39s-.09,4.29-.09,4.29l-.02,1.39,1.17-.72Z"/>
        <path class="cls-3" d="m2330.71,1963.34l-.21.21v.31s-.06,2.85-.06,2.85l-.02.75.75.02,29.06.89.75.02.02-.75.06-3.76.02-.75-.75-.02-21.5-.66,10.93-10.73h0c8.02-7.79,10.56-11.55,10.65-16.57.13-7.24-5.97-13.01-14.19-13.26s-15.04,5.25-15.33,13h0v.27l-.02.75.75.02,4.08.13.75.02v-.75s.02-.25.02-.25c.21-4.58,4.22-8.22,9.79-8.05,5.02.15,8.52,3.73,8.44,8.21-.03,1.76-.39,3.23-1.52,5.04-1.15,1.85-3.11,4.04-6.38,7.18h-.01s-16.08,15.88-16.08,15.88Z"/>
        <path class="cls-3" d="m2292.02,1955.91l-.02.75.75.02,21.84.67-.16,8.98-.02.75.75.02,4.08.13.75.02v-.75s.18-9.11.18-9.11l5.81.18.75.02.02-.75.06-3.63.02-.75-.75-.02-5.82-.18.54-29.48.02-.75-.75-.02-6.18-.19h-.39s-.23.31-.23.31l-21.05,29.6-.13.19v.23l-.07,3.76Zm6.5-4.32l16.6-23.12-.43,23.62-16.17-.5Z"/>
        <path class="cls-3" d="m2134.1,1876.43v.75s.74.03.74.03l21.84.66-.17,8.98v.75s.74.03.74.03l4.07.12.75.02v-.75s.18-9.11.18-9.11l5.82.18.75.02v-.75s.08-3.63.08-3.63v-.75s-.74-.02-.74-.02l-5.81-.18.54-29.47v-.75s-.74-.03-.74-.03l-6.17-.19h-.4s-.23.31-.23.31l-21.04,29.6-.13.19v.23s-.08,3.76-.08,3.76Zm6.5-4.31l16.61-23.12-.43,23.61-16.18-.49Z"/>
        <path class="cls-3" d="m2171.68,1876.17v.07c.57,7.25,6.67,12.57,15.78,12.72,9.09.28,16.09-5.18,16.24-12.98.06-3.31-1.08-6.11-3.14-8.17-1.44-1.44-3.29-2.5-5.44-3.13,4.38-1.65,7.3-5.15,7.39-10.04.13-7.04-5.92-12.1-14.33-12.35-8.47-.26-14.47,4.59-15.3,11.77v.07s-.01.26-.01.26v.75s.74.02.74.02l4.07.12.75.03v-.75s.02-.22.02-.22c.56-4.04,4.15-6.96,9.63-6.79,2.77.08,4.93.9,6.38,2.19,1.44,1.29,2.24,3.11,2.2,5.37-.08,4.28-3.75,7.45-9.38,7.28l-5.12-.16-.75-.02-.02.75-.06,3.5-.02.75.75.03,5.39.16c3.45.11,6.11,1.01,7.88,2.48,1.75,1.46,2.71,3.54,2.66,6.18-.09,4.65-4.15,8.09-10.32,7.9-6.15-.19-9.88-3.47-10.41-7.8v-.96s-.73-.02-.73-.02l-4.08-.13-.75-.02v.75s-.02.39-.02.39Z"/>
        <path class="cls-3" d="m1952.09,1858.95l-.02.75.75.02,21.85.67-.17,8.98v.75s.74.02.74.02l4.07.13.75.02v-.75s.18-9.11.18-9.11l5.82.18.75.02v-.75s.08-3.63.08-3.63v-.75s-.74-.02-.74-.02l-5.82-.18.55-29.48v-.75s-.74-.02-.74-.02l-6.17-.19h-.4s-.23.31-.23.31l-21.05,29.6-.13.19v.23l-.07,3.76Zm6.5-4.19l16.6-23.12-.43,23.62-16.17-.5Z"/>
        <path class="cls-3" d="m1989.13,1859.83l-.02.75.75.02,21.84.67-.16,8.98-.02.75.75.02,4.07.12.75.03.02-.75.17-9.11,5.81.17.75.03.02-.75.06-3.64.02-.75-.75-.02-5.82-.18.54-29.47.02-.75-.75-.02-6.18-.19-.39-.02-.23.33-21.05,29.6-.13.18v.23l-.07,3.77Zm6.49-4.19l16.61-23.12-.43,23.61-16.18-.49Z"/>
        <path class="cls-3" d="m1791.27,1833.62v.75s.74.02.74.02l21.84.67-.17,8.98v.75s.74.02.74.02l4.07.12.75.03v-.75s.18-9.11.18-9.11l5.82.17.75.03v-.75s.08-3.63.08-3.63v-.75s-.74-.03-.74-.03l-5.81-.18.54-29.47v-.75s-.74-.02-.74-.02l-6.17-.19h-.4s-.23.31-.23.31l-21.04,29.6-.14.18v.23l-.07,3.77Zm6.5-4.32l16.61-23.12-.44,23.61-16.17-.49Z"/>
        <path class="cls-3" d="m1829.89,1833.25v.07c.58,7.23,6.92,12.7,15.36,13.1h.01c9.44.29,16.51-5.9,16.68-15.05.16-8.86-6.38-15.49-15.19-15.76-3.83-.11-7.46,1.05-10,3.37l1.66-13.55,20.48.63.75.02.02-.75.07-3.77v-.75s-.74-.02-.74-.02l-24.71-.75-.68-.02-.08.67-2.82,24.59-.09.82.82.03,3.81.11.47.02.21-.41c.35-.66.96-1.36,1.6-1.96h.01s.01-.02.01-.02c2.13-2.12,4.97-3.25,8.33-3.15,6.03.19,10.34,4.67,10.23,10.6s-4.57,10.15-10.74,9.96c-5.33-.16-9.35-3.68-9.89-7.91v-.21l.02-.75-.75-.02-4.08-.13-.75-.02v.75s-.02.26-.02.26Z"/>
        <path class="cls-3" d="m1646.85,1815.85l-.02.75.75.02,21.84.67-.16,8.98-.02.75.75.02,4.08.12.75.03v-.75s.18-9.11.18-9.11l5.81.18.75.02.02-.75.06-3.63.02-.75-.75-.03-5.82-.17.54-29.48.02-.75-.75-.02-6.17-.19h-.4s-.23.31-.23.31l-21.05,29.6-.13.18v.24l-.07,3.76Zm6.49-4.19l16.61-23.12-.43,23.62-16.18-.5Z"/>
        <path class="cls-3" d="m1717.49,1793.6v-.08l-.02-.09c-1.41-6.51-7.03-11.31-14.85-11.55-5.49-.17-9.97,2.02-13.08,6.22-3.09,4.16-4.8,10.26-4.94,17.87-.14,7.79,1.79,13.4,4.96,17.1,3.16,3.7,7.49,5.39,11.95,5.46,9.19.28,16.24-6.18,16.41-15.18.16-8.72-6.38-15.48-15.19-15.75-5.36-.17-9.91,2.21-12.45,5.76.31-4.46,1.35-8.43,3.17-11.34,2.02-3.22,4.98-5.13,9.08-5,4.71.14,8.14,2.79,9.15,6.61v.04s.13.39.13.39l.17.52h.53s4.21.14,4.21.14l.75.02v-.75s.02-.39.02-.39Zm-5.28,19.84c-.11,5.82-4.72,10.27-10.62,10.09-6-.18-10.46-5.16-10.35-10.99.1-5.51,4.79-9.75,10.73-9.57,6.04.18,10.34,4.67,10.24,10.47Z"/>
        <path class="cls-3" d="m1505.37,1794.75v.75s.74.03.74.03l21.84.67-.17,8.97v.75s.74.03.74.03l4.07.12.75.02v-.75s.18-9.1.18-9.1l5.82.17.75.03v-.75s.08-3.64.08-3.64v-.75s-.74-.02-.74-.02l-5.82-.18.55-29.47v-.75s-.74-.02-.74-.02l-6.17-.19-.4-.02-.23.33-21.04,29.6-.14.18v.23l-.07,3.76Zm6.5-4.18l16.61-23.12-.44,23.61-16.17-.49Z"/>
        <path class="cls-3" d="m1543.44,1766.17l23.49.85-20.8,38.28-.58,1.07,1.23.04,4.47.14h.46s.21-.39.21-.39l21.12-39.36.08-.16v-.18s.08-3.89.08-3.89v-.75s-.74-.03-.74-.03l-28.92-.88-.75-.02-.02.75-.07,3.76v.75s.74.02.74.02Z"/>
        <path class="cls-3" d="m1356.58,1773.75v.75s.74.02.74.02l21.84.67-.16,8.98-.02.75.75.02,4.07.13.75.02.02-.75.17-9.11,5.81.18.75.02.02-.75.06-3.63.02-.75-.75-.02-5.82-.18.54-29.48.02-.75-.75-.02-6.18-.19h-.39s-.23.31-.23.31l-21.05,29.6-.13.19v.23s-.08,3.76-.08,3.76Zm6.51-4.31l16.6-23.12-.43,23.61-16.17-.49Z"/>
        <path class="cls-3" d="m1402.75,1761.39c-5,1.65-8.47,5.91-8.57,11.18-.15,7.97,6.97,13.56,16.4,13.85,9.45.29,16.62-4.87,16.77-12.83.1-5.28-3.12-9.64-8.12-11.66,4.13-1.64,6.85-5.06,6.93-9.55.13-7.17-6.04-12.36-14.72-12.62-8.66-.27-15.16,4.53-15.29,11.71-.09,4.39,2.53,7.96,6.6,9.92Zm8.24,3.1c3.28.1,5.98,1.09,7.84,2.62,1.84,1.53,2.86,3.63,2.82,6.04-.04,2.42-1.15,4.45-3.04,5.86-1.91,1.43-4.64,2.25-7.93,2.15-6.58-.2-10.75-4.04-10.66-8.8.09-4.61,4.37-8.07,10.97-7.87Zm.36-19.73c2.82.09,5.12.96,6.7,2.32,1.56,1.36,2.44,3.22,2.4,5.39-.04,2.1-.97,3.84-2.58,5.05-1.63,1.22-3.96,1.92-6.79,1.83-5.8-.17-9.31-3.47-9.23-7.45.07-4.12,3.85-7.31,9.5-7.14Z"/>
        <path class="cls-3" d="m1205.03,1748.64l-.02.75.75.02,21.84.67-.16,8.98-.02.75.75.02,4.07.12.75.03.02-.75.17-9.11,5.81.17.75.03.02-.75.06-3.63.02-.75-.75-.03-5.82-.18.54-29.47.02-.75-.75-.02-6.18-.19h-.39s-.23.31-.23.31l-21.05,29.6-.13.18v.23l-.07,3.77Zm6.5-4.32l16.6-23.12-.43,23.61-16.17-.49Z"/>
        <path class="cls-3" d="m1243.76,1749.7v.09l.02.08c1.41,6.51,7.03,11.31,14.85,11.55,5.49.17,9.97-2.02,13.08-6.22,3.09-4.16,4.8-10.25,4.94-17.87.14-7.78-1.76-13.4-4.91-17.09-3.15-3.71-7.48-5.4-12-5.47-9.19-.28-16.24,6.18-16.41,15.18-.16,8.73,6.38,15.49,15.19,15.75,5.34.17,9.88-2.19,12.43-5.73-.36,4.45-1.4,8.41-3.2,11.31-2,3.22-4.93,5.13-9.03,5.01-4.71-.15-8.14-2.8-9.15-6.62v-.04s-.13-.39-.13-.39l-.17-.51-.53-.02-4.21-.13-.75-.02v.75s-.02.39-.02.39Zm16.02-29.8c6.02.19,10.47,5.04,10.36,11-.1,5.36-4.91,9.62-10.74,9.57-6.04-.19-10.33-4.68-10.23-10.47.11-5.82,4.72-10.28,10.61-10.1Z"/>
        <path class="cls-3" d="m1061.62,1714.87v.07c.57,7.23,6.92,12.7,15.36,13.09h.01c9.44.29,16.51-5.89,16.68-15.04.16-8.87-6.38-15.49-15.19-15.76-3.83-.12-7.46,1.05-10,3.37l1.66-13.55,20.48.62.75.02.02-.75.07-3.76v-.75s-.74-.02-.74-.02l-24.71-.76-.68-.02-.08.68-2.82,24.59-.09.82.82.02,3.81.12h.46s.22-.39.22-.39c.35-.67.96-1.36,1.6-1.97h.02c2.13-2.13,4.97-3.26,8.33-3.16,6.03.18,10.34,4.66,10.23,10.6-.11,5.93-4.57,10.15-10.74,9.96-5.33-.16-9.35-3.69-9.89-7.92v-.2l.02-.75-.75-.03-4.08-.12-.75-.02v.75s-.02.26-.02.26Z"/>
        <path class="cls-3" d="m1114.25,1681.97c-5.24-.16-9.52,2.01-12.49,6.04-2.96,4.01-4.59,9.81-4.73,16.91-.12,7.04,1.3,12.9,4.1,17.06,2.82,4.19,7.01,6.62,12.26,6.78,5.24.16,9.51-2.01,12.49-6.02,2.95-3.99,4.59-9.76,4.72-16.8v-.13c.13-7.04-1.29-12.9-4.1-17.06-2.82-4.19-7.01-6.62-12.25-6.78Zm-.1,5.26c3.39.11,6.09,1.82,7.95,4.94,1.88,3.16,2.9,7.77,2.79,13.6-.1,5.76-1.26,10.34-3.24,13.43-1.96,3.06-4.72,4.66-8.17,4.56-3.46-.11-6.16-1.85-8-4.99-1.86-3.17-2.85-7.79-2.74-13.55v-.13c.11-5.76,1.29-10.31,3.29-13.36,1.97-3.03,4.73-4.6,8.12-4.5Z"/>
        <path class="cls-3" d="m928.47,1683.92v.05s0,.04,0,.04c.71,7.21,7.03,12.69,15.35,13.08h.01c9.44.29,16.51-5.89,16.68-15.05.16-8.86-6.38-15.48-15.19-15.75-3.83-.12-7.46,1.05-10,3.36l1.66-13.55,20.49.63.75.02v-.75s.08-3.76.08-3.76v-.75s-.74-.02-.74-.02l-24.71-.76-.68-.02-.08.68-2.82,24.58-.09.82.82.03,3.81.11.46.02.22-.41c.35-.66.96-1.35,1.6-1.96h0s0-.01,0-.01c2.13-2.12,4.97-3.26,8.33-3.15,6.04.18,10.34,4.66,10.23,10.6-.11,5.93-4.57,10.14-10.74,9.96-5.33-.17-9.35-3.69-9.89-7.92v-.21s.02-.75.02-.75l-.75-.02-4.08-.12-.75-.03v.75s-.02.26-.02.26Z"/>
        <path class="cls-3" d="m965.08,1665.07l11.01-6.77-.7,37.95v.75s.74.02.74.02l4.1.13.75.02v-.75s.83-43.97.83-43.97v-.75s-.74-.02-.74-.02l-4.1-.13h-.23l-.19.12-12.19,7.83-.33.21v.4s-.09,4.29-.09,4.29l-.03,1.39,1.17-.72Z"/>
        <path class="cls-3" d="m778.69,1649.85v.04s0,.04,0,.04c.71,7.22,7.04,12.69,15.49,13.09h.01c9.44.29,16.51-5.9,16.68-15.05.16-8.86-6.38-15.49-15.19-15.76-3.82-.11-7.46,1.05-10,3.37l1.66-13.55,20.35.62.75.03v-.75s.08-3.77.08-3.77v-.75s-.74-.02-.74-.02l-24.71-.76-.68-.02-.08.68-2.82,24.59-.09.82.83.02,3.81.12h.46s.22-.39.22-.39c.35-.67.96-1.36,1.6-1.97h.02c2.13-2.13,4.97-3.26,8.33-3.16,6.03.18,10.34,4.66,10.23,10.6-.11,5.93-4.57,10.15-10.74,9.96-5.33-.16-9.34-3.69-9.89-7.92v-.2s.02-.75.02-.75l-.75-.03-4.08-.12-.75-.02v.75s-.02.26-.02.26Z"/>
        <path class="cls-3" d="m814.76,1658.37l-.21.21v.3s-.06,2.86-.06,2.86v.75s.74.02.74.02l29.06.89.75.02v-.75s.08-3.77.08-3.77v-.75s-.74-.02-.74-.02l-21.5-.66,10.93-10.73h0c8.02-7.79,10.56-11.55,10.65-16.56.13-7.24-5.97-13.01-14.19-13.27-8.22-.25-15.05,5.25-15.33,13h0v.28s-.02.75-.02.75l.75.02,4.08.12.75.03v-.75s.02-.25.02-.25c.21-4.59,4.22-8.23,9.79-8.06,5.02.16,8.52,3.74,8.44,8.21-.03,1.76-.39,3.24-1.52,5.05-1.15,1.84-3.11,4.03-6.38,7.17h0s-16.08,15.89-16.08,15.89Z"/>
        <path class="cls-3" d="m625.42,1620.12v.04s0,.04,0,.04c.57,7.23,6.92,12.7,15.49,13.09h.01c9.44.29,16.51-5.89,16.68-15.04.16-8.86-6.38-15.49-15.19-15.76-3.83-.12-7.46,1.05-10,3.37l1.66-13.55,20.35.62.75.02v-.75s.08-3.76.08-3.76v-.75s-.74-.02-.74-.02l-24.71-.76-.68-.02-.08.68-2.82,24.58-.09.82.83.03,3.81.12h.46s.22-.4.22-.4c.35-.66.96-1.35,1.6-1.96h0s0,0,0,0c2.13-2.12,4.97-3.26,8.33-3.15,6.04.18,10.34,4.66,10.23,10.6-.11,5.93-4.57,10.14-10.74,9.96-5.33-.17-9.34-3.69-9.89-7.92v-.21s.02-.75.02-.75l-.75-.02-4.07-.12-.75-.03v.75s-.02.26-.02.26Z"/>
        <path class="cls-3" d="m660.76,1620.96v.03s0,.04,0,.04c.57,7.23,6.66,12.7,15.78,12.72,9.09.27,16.09-5.19,16.23-12.98.06-3.31-1.08-6.11-3.14-8.18-1.43-1.43-3.29-2.49-5.44-3.12,4.38-1.65,7.31-5.15,7.4-10.04.13-7.04-5.92-12.1-14.33-12.36-8.47-.26-14.47,4.6-15.3,11.77v.04s0,.03,0,.03v.26s-.02.75-.02.75l.75.03,4.07.12.75.02v-.75s.02-.21.02-.21c.57-4.04,4.16-6.96,9.64-6.79,2.76.08,4.93.89,6.38,2.19,1.44,1.28,2.24,3.11,2.2,5.37-.08,4.27-3.75,7.45-9.38,7.28l-5.13-.16-.75-.02v.75s-.08,3.5-.08,3.5v.75s.73.02.73.02l5.39.17c3.44.1,6.1,1,7.87,2.48,1.75,1.46,2.71,3.53,2.66,6.18-.09,4.65-4.15,8.09-10.31,7.9-6.15-.19-9.88-3.48-10.42-7.81v-.2s.02-.75.02-.75l-.75-.03-4.08-.12-.75-.02v.75s-.02.39-.02.39Z"/>
        <path class="cls-3" d="m435.9,1629.12v.05s0,.04,0,.04c.71,7.22,7.03,12.69,15.35,13.08h.01c9.44.29,16.51-5.89,16.68-15.04.16-8.87-6.38-15.49-15.19-15.76-3.83-.12-7.46,1.05-10,3.37l1.66-13.56,20.49.63.75.02v-.75s.08-3.76.08-3.76v-.75s-.74-.02-.74-.02l-24.71-.76-.68-.02-.08.68-2.82,24.59-.09.81.83.03,3.81.12h.46s.22-.39.22-.39c.35-.67.96-1.36,1.6-1.97h0s0,0,0,0c2.13-2.12,4.97-3.26,8.33-3.15,6.04.18,10.34,4.66,10.23,10.6-.11,5.93-4.57,10.15-10.74,9.96-5.33-.17-9.34-3.69-9.89-7.92v-.21s.02-.75.02-.75l-.75-.02-4.07-.12-.75-.03v.75s-.02.26-.02.26Z"/>
        <path class="cls-3" d="m470.7,1631.1v.75s.74.02.74.02l21.84.67-.17,8.98v.75s.74.02.74.02l4.07.12.75.03v-.75s.18-9.11.18-9.11l5.82.17.75.03v-.75s.08-3.63.08-3.63v-.75s-.74-.03-.74-.03l-5.82-.18.54-29.47v-.75s-.74-.02-.74-.02l-6.17-.19h-.4s-.23.31-.23.31l-21.05,29.6-.13.18v.23s-.07,3.77-.07,3.77Zm6.5-4.19l16.61-23.12-.43,23.61-16.17-.49Z"/>
        <path class="cls-3" d="m594.31,1740.18v.04s0,.04,0,.04c.57,7.23,6.92,12.7,15.49,13.09h.01c9.44.29,16.51-5.89,16.68-15.04.16-8.87-6.38-15.49-15.19-15.76-3.83-.12-7.46,1.05-10,3.37l1.66-13.55,20.48.62.75.03v-.75s.08-3.77.08-3.77v-.75s-.74-.02-.74-.02l-24.71-.75-.68-.03-.08.68-2.82,24.59-.09.82.83.02,3.68.11.46.02.22-.41c.35-.66.96-1.35,1.6-1.96h0s0-.01,0-.01c2.13-2.12,4.97-3.26,8.33-3.15,6.03.18,10.34,4.66,10.23,10.6-.11,5.93-4.57,10.14-10.74,9.96-5.33-.17-9.34-3.69-9.89-7.92v-.21s.02-.75.02-.75l-.75-.02-4.08-.12-.75-.03v.75s-.02.26-.02.26Z"/>
        <path class="cls-3" d="m630.57,1741.04v.04s0,.03,0,.03c.57,7.23,6.91,12.71,15.35,13.1h.01c9.44.29,16.51-5.89,16.68-15.05.16-8.86-6.38-15.49-15.19-15.76-3.83-.11-7.46,1.06-10,3.37l1.66-13.55,20.49.63.75.02v-.75s.08-3.76.08-3.76v-.75s-.74-.03-.74-.03l-24.71-.75-.68-.02-.08.67-2.82,24.59-.09.82.83.03,3.81.11.46.02.22-.41c.35-.66.96-1.36,1.6-1.96h0s0-.02,0-.02c2.13-2.11,4.97-3.25,8.33-3.15,6.04.19,10.34,4.67,10.23,10.6-.11,5.93-4.57,10.15-10.74,9.96-5.33-.16-9.34-3.68-9.89-7.91v-.21s.02-.75.02-.75l-.75-.02-4.08-.13-.75-.02v.75s-.02.26-.02.26Z"/>
        <path class="cls-3" d="m750.24,1785.76v.03s0,.04,0,.04c.57,7.23,7.05,12.7,15.35,13.09h.01c9.44.29,16.51-5.89,16.68-15.04.16-8.87-6.38-15.49-15.19-15.76-3.83-.12-7.46,1.05-10,3.37l1.66-13.55,20.49.62.75.02v-.74s.08-3.77.08-3.77v-.75s-.74-.02-.74-.02l-24.71-.76-.68-.02-.08.68-2.82,24.59-.09.82.83.02,3.81.12h.46s.22-.39.22-.39c.35-.67.96-1.36,1.6-1.97h.02c2.13-2.13,4.97-3.26,8.33-3.16,6.04.18,10.34,4.66,10.23,10.6-.11,5.93-4.57,10.15-10.74,9.96-5.33-.16-9.35-3.69-9.89-7.92v-.2s.02-.75.02-.75l-.75-.03-4.08-.12-.75-.02v.75s-.02.26-.02.26Z"/>
        <path class="cls-3" d="m818.65,1764.61v-.09s-.02-.08-.02-.08c-1.41-6.51-7.04-11.31-14.85-11.55-5.5-.17-9.97,2.02-13.09,6.21-3.09,4.17-4.8,10.26-4.94,17.88-.14,7.72,1.76,13.33,4.91,17.04,3.15,3.72,7.48,5.45,12,5.52,9.19.28,16.24-6.18,16.41-15.18.16-8.73-6.37-15.49-15.19-15.76-5.36-.16-9.91,2.21-12.45,5.76.32-4.46,1.35-8.43,3.17-11.33,2.02-3.22,4.98-5.13,9.08-5.01,4.71.15,8.14,2.8,9.15,6.62v.02s.01.01.01.01l.12.4.16.51.54.02,4.21.13.75.02v-.75s.02-.39.02-.39Zm-5.28,19.7c-.11,5.82-4.72,10.28-10.61,10.1-6.01-.19-10.46-5.04-10.35-11,.1-5.51,4.8-9.75,10.73-9.56,6.04.18,10.34,4.66,10.23,10.46Z"/>
        <path class="cls-3" d="m906.17,1831.28v.03s0,.04,0,.04c.57,7.35,6.91,12.83,15.37,13.09,9.44.29,16.51-5.89,16.68-15.04.16-8.87-6.38-15.49-15.19-15.76-3.83-.12-7.46,1.05-10,3.37l1.66-13.55,20.49.62.75.02v-.75s.08-3.76.08-3.76v-.75s-.74-.02-.74-.02l-24.71-.76-.68-.02-.08.68-2.82,24.59-.09.82.83.02,3.81.12h.46s.21-.39.21-.39c.36-.67.96-1.36,1.6-1.97h.02c2.13-2.13,4.97-3.26,8.33-3.16,6.04.18,10.34,4.66,10.23,10.6-.11,5.93-4.57,10.15-10.74,9.96-5.33-.16-9.34-3.69-9.89-7.92v-.2s.02-.75.02-.75l-.75-.03-4.07-.12-.75-.02v.75s-.02.26-.02.26Z"/>
        <path class="cls-3" d="m942.52,1803.93l23.49.85-20.8,38.28-.59,1.07,1.23.04,4.47.14h.46s.22-.39.22-.39l21.11-39.36.09-.16v-.18s.07-3.89.07-3.89v-.75s-.74-.03-.74-.03l-28.92-.88-.75-.02v.75s-.08,3.76-.08,3.76v.75s.73.02.73.02Z"/>
        <path class="cls-3" d="m1047.31,1878.2v.09c.72,7.21,7.04,12.69,15.36,13.08h.01c9.44.28,16.51-5.9,16.68-15.05.16-8.86-6.38-15.49-15.19-15.76-3.83-.12-7.46,1.05-10,3.37l1.66-13.55,20.48.63.75.02.02-.75.07-3.77v-.75s-.74-.02-.74-.02l-24.71-.75-.68-.02-.08.67-2.82,24.59-.09.82.82.02,3.81.12.47.02.21-.41c.36-.66.96-1.36,1.6-1.96h.01s.01-.02.01-.02c2.13-2.12,4.97-3.25,8.33-3.15,6.03.19,10.34,4.67,10.23,10.6-.11,5.93-4.57,10.15-10.74,9.96-5.33-.16-9.35-3.68-9.89-7.91v-.21l.02-.75-.75-.02-4.08-.13-.75-.02v.75s-.02.26-.02.26Z"/>
        <path class="cls-3" d="m1091.24,1867.07c-5,1.65-8.47,5.91-8.57,11.18-.15,7.97,6.97,13.56,16.41,13.85,9.44.28,16.62-4.88,16.76-12.84.1-5.28-3.12-9.64-8.12-11.66,4.13-1.63,6.85-5.05,6.93-9.54.14-7.17-6.04-12.36-14.71-12.63-8.67-.26-15.17,4.53-15.3,11.71-.08,4.4,2.53,7.97,6.6,9.93Zm8.24,3.09c3.29.1,5.99,1.09,7.84,2.63,1.84,1.53,2.87,3.62,2.82,6.04-.04,2.42-1.15,4.44-3.04,5.86-1.91,1.42-4.64,2.24-7.93,2.14-6.58-.2-10.74-4.03-10.66-8.79.09-4.62,4.37-8.08,10.97-7.88Zm.36-19.72c2.82.08,5.13.96,6.7,2.32,1.57,1.35,2.45,3.21,2.41,5.39-.04,2.09-.98,3.83-2.59,5.04-1.62,1.22-3.96,1.93-6.78,1.84-5.81-.18-9.32-3.48-9.24-7.45.07-4.12,3.85-7.32,9.5-7.14Z"/>
        <path class="cls-3" d="m1203.27,1911.23v.08c.57,7.22,7.04,12.84,15.37,13.09,9.44.29,16.51-5.89,16.67-15.04.17-8.87-6.37-15.49-15.18-15.76-3.83-.12-7.46,1.05-10.01,3.37l1.66-13.56,20.49.63.75.02v-.75s.08-3.76.08-3.76l.02-.75-.75-.02-24.71-.76-.69-.02-.07.68-2.82,24.59-.1.81.83.03,3.81.12h.46s.22-.39.22-.39c.35-.67.96-1.36,1.6-1.97h.01c2.13-2.13,4.98-3.27,8.33-3.16,6.04.18,10.34,4.66,10.24,10.6-.11,5.93-4.57,10.15-10.75,9.96-5.32-.17-9.34-3.69-9.89-7.92v-.21s.02-.75.02-.75l-.75-.02-4.07-.12-.75-.03-.02.75v.26Z"/>
        <path class="cls-3" d="m1239.77,1913.52v.09s.01.09.01.09c1.42,6.51,7.04,11.31,14.85,11.54,5.5.17,9.97-2.01,13.09-6.21,3.09-4.17,4.79-10.26,4.93-17.88.15-7.78-1.75-13.39-4.9-17.09-3.15-3.7-7.48-5.4-12-5.47-9.2-.28-16.24,6.18-16.41,15.18-.16,8.73,6.37,15.49,15.19,15.76,5.34.16,9.88-2.2,12.43-5.73-.37,4.45-1.4,8.41-3.21,11.31-1.99,3.21-4.92,5.13-9.02,5-4.71-.14-8.15-2.8-9.15-6.62h-.01v-.03l-.13-.39-.16-.52-.54-.02-4.2-.12-.75-.03-.02.75v.39Zm15.89-29.79c6.01.18,10.46,5.03,10.35,10.99-.1,5.37-4.78,9.62-10.74,9.57-6.03-.19-10.33-4.68-10.22-10.47.1-5.82,4.72-10.27,10.61-10.09Z"/>
        <path class="cls-3" d="m1382.46,1909.52v-.09l-.02-.09c-1.41-6.51-7.03-11.31-14.84-11.55-5.5-.16-9.98,2.02-13.09,6.22-3.09,4.17-4.8,10.26-4.94,17.88-.14,7.77,1.76,13.39,4.91,17.09,3.15,3.7,7.48,5.39,12,5.47,9.19.27,16.24-6.19,16.41-15.18.16-8.73-6.37-15.49-15.19-15.76-5.36-.17-9.91,2.21-12.45,5.76.31-4.46,1.35-8.43,3.17-11.34,2.02-3.22,4.98-5.13,9.08-5,4.71.14,8.14,2.8,9.15,6.61v.04s.13.39.13.39l.17.52h.54s4.2.14,4.2.14l.75.02v-.74s.02-.39.02-.39Zm-5.28,19.83c-.11,5.82-4.72,10.27-10.61,10.09-6.01-.18-10.47-5.16-10.36-10.99.1-5.51,4.8-9.75,10.73-9.57,6.04.19,10.34,4.67,10.24,10.47Z"/>
        <path class="cls-3" d="m1404.37,1898.66c-5.24-.16-9.52,2-12.5,6.04-2.95,4-4.59,9.8-4.72,16.91-.13,7.03,1.3,12.89,4.1,17.06,2.82,4.19,7.01,6.62,12.26,6.78,5.24.16,9.51-2.01,12.49-6.02,2.95-3.99,4.59-9.76,4.72-16.8v-.13c.13-7.04-1.29-12.9-4.1-17.06-2.82-4.2-7.01-6.62-12.25-6.78Zm.03,5.27c3.4.1,6.09,1.81,7.95,4.93,1.88,3.16,2.9,7.77,2.79,13.6-.1,5.76-1.26,10.35-3.24,13.44-1.96,3.05-4.72,4.65-8.17,4.55-3.46-.11-6.16-1.85-8-4.99-1.86-3.17-2.85-7.78-2.74-13.55v-.13c.11-5.76,1.29-10.3,3.29-13.36,1.97-3.03,4.73-4.6,8.12-4.49Z"/>
        <path class="cls-3" d="m1678.05,1924.9v-.09l-.02-.09c-1.41-6.51-7.04-11.31-14.85-11.55-5.49-.16-9.97,2.02-13.08,6.22-3.1,4.17-4.8,10.26-4.94,17.88-.15,7.78,1.76,13.39,4.9,17.09,3.16,3.7,7.48,5.4,12,5.47,9.2.28,16.25-6.19,16.41-15.18.16-8.73-6.37-15.49-15.18-15.76-5.36-.16-9.91,2.21-12.46,5.76.32-4.46,1.36-8.43,3.18-11.34,2.01-3.21,4.97-5.13,9.08-5,4.71.14,8.14,2.8,9.15,6.61v.04s.13.39.13.39l.16.52h.54s4.21.14,4.21.14l.75.03v-.75s.02-.39.02-.39Zm-5.29,19.83c-.1,5.82-4.72,10.27-10.61,10.09-6.13-.18-10.46-5.15-10.35-10.99.1-5.51,4.79-9.75,10.73-9.57,6.04.19,10.34,4.67,10.23,10.47Z"/>
        <path class="cls-3" d="m1683.66,1955.59l-.22.21v.3l-.06,2.86v.75s.74.02.74.02l29.06.89.75.02v-.75s.08-3.76.08-3.76v-.75s-.74-.02-.74-.02l-21.49-.66,10.93-10.73h0c8.02-7.8,10.55-11.56,10.65-16.57.13-7.24-5.97-13.01-14.19-13.26s-15.05,5.25-15.33,13h0s-.01.27-.01.27v.75s.74.02.74.02l4.07.13.75.02.02-.75v-.25c.21-4.59,4.22-8.22,9.79-8.05,5.03.15,8.53,3.73,8.44,8.21-.03,1.75-.39,3.23-1.51,5.04-1.15,1.84-3.11,4.04-6.39,7.18h0l-16.08,15.88Z"/>
        <path class="cls-3" d="m1835.7,1933.56v-.09l-.02-.09c-1.41-6.51-7.04-11.3-14.85-11.54-5.5-.17-9.97,2.01-13.09,6.21-3.09,4.17-4.79,10.26-4.93,17.88-.15,7.71,1.76,13.33,4.9,17.04,3.15,3.72,7.48,5.45,12,5.52,9.2.28,16.25-6.18,16.41-15.18.16-8.73-6.37-15.49-15.19-15.76-5.35-.16-9.9,2.21-12.45,5.76.32-4.46,1.36-8.43,3.18-11.34,2.01-3.21,4.97-5.13,9.08-5,4.7.14,8.14,2.8,9.14,6.62h.01v.03l.13.39.16.52.54.02,4.2.12.75.03.02-.75v-.39Zm-5.29,19.7c-.1,5.82-4.72,10.28-10.61,10.1-6.14-.19-10.46-5.03-10.35-11,.1-5.51,4.79-9.75,10.73-9.57,6.04.19,10.34,4.67,10.23,10.47Z"/>
        <path class="cls-3" d="m1840.32,1956.43v.07c.29,3.58,1.9,6.78,4.64,9.07,2.73,2.28,6.53,3.64,11.14,3.65,9.09.27,16.1-5.18,16.24-12.98.06-3.31-1.08-6.11-3.14-8.17-1.43-1.44-3.29-2.5-5.44-3.13,4.38-1.65,7.3-5.15,7.39-10.04.13-7.04-5.92-12.1-14.33-12.35-8.47-.26-14.46,4.59-15.3,11.76v.34s-.02.75-.02.75l.75.02,4.07.12.75.03.02-.75v-.22c.57-4.04,4.16-6.96,9.64-6.79,2.76.08,4.92.89,6.37,2.19,1.44,1.29,2.25,3.11,2.21,5.37-.08,4.27-3.75,7.45-9.38,7.28l-5.13-.16-.75-.02v.75s-.08,3.5-.08,3.5v.75s.74.03.74.03l5.39.16c3.44.11,6.1,1.01,7.87,2.48,1.75,1.46,2.71,3.54,2.66,6.18-.09,4.65-4.15,8.09-10.31,7.9-6.15-.19-9.88-3.48-10.42-7.8v-.21l.02-.75-.75-.02-4.08-.13-.75-.02v.75s-.02.39-.02.39Z"/>
        <path class="cls-3" d="m1988.41,1946.88v-.09l-.02-.09c-1.41-6.51-7.04-11.31-14.85-11.55-5.5-.16-9.97,2.02-13.09,6.22-3.09,4.17-4.79,10.26-4.93,17.88-.15,7.78,1.79,13.39,4.95,17.09,3.17,3.7,7.5,5.4,11.95,5.47,9.2.28,16.25-6.19,16.41-15.18.16-8.73-6.37-15.49-15.18-15.76-5.36-.16-9.91,2.21-12.46,5.76.32-4.46,1.36-8.43,3.18-11.34,2.01-3.21,4.97-5.13,9.08-5,4.7.14,8.14,2.8,9.15,6.61v.04s.13.39.13.39l.16.52h.54s4.21.14,4.21.14l.75.03v-.75s.02-.39.02-.39Zm-5.29,19.83c-.1,5.82-4.72,10.27-10.61,10.09-6.01-.18-10.46-5.15-10.35-10.99.1-5.51,4.79-9.75,10.73-9.57,6.04.19,10.34,4.67,10.23,10.47Z"/>
        <path class="cls-3" d="m1992.49,1971.02v.75s.74.02.74.02l21.84.67-.17,8.98v.75s.74.02.74.02l4.07.12.75.03v-.75s.18-9.11.18-9.11l5.82.18.75.02v-.75s.08-3.63.08-3.63v-.75s-.74-.03-.74-.03l-5.82-.17.55-29.48v-.75s-.74-.02-.74-.02l-6.17-.19h-.4s-.23.31-.23.31l-21.04,29.6-.14.18v.23l-.07,3.77Zm6.5-4.32l16.61-23.12-.44,23.62-16.17-.5Z"/>
        <path class="cls-3" d="m2159.22,1942.3v-.09s-.01-.09-.01-.09c-1.41-6.51-7.04-11.31-14.85-11.55-5.5-.16-9.97,2.02-13.09,6.22-3.09,4.17-4.79,10.26-4.93,17.88-.15,7.72,1.79,13.33,4.95,17.04,3.17,3.72,7.49,5.45,11.95,5.52,9.2.28,16.24-6.19,16.41-15.18.16-8.73-6.37-15.49-15.19-15.76-5.36-.16-9.9,2.21-12.45,5.76.32-4.46,1.36-8.43,3.18-11.34,2.01-3.21,4.97-5.13,9.07-5,4.71.14,8.15,2.8,9.15,6.61v.02s.01.02.01.02l.13.39.16.52h.54s4.2.14,4.2.14l.75.03.02-.75v-.39Zm-5.28,19.7c-.1,5.82-4.72,10.27-10.61,10.09-6.01-.18-10.46-5.03-10.35-10.99.1-5.51,4.79-9.75,10.73-9.57,6.04.19,10.34,4.67,10.23,10.47Z"/>
        <path class="cls-3" d="m2164.76,1965.19v.09c.71,7.21,7.04,12.69,15.36,13.08h.01c9.44.29,16.51-5.89,16.68-15.05.16-8.86-6.38-15.49-15.19-15.76-3.83-.11-7.46,1.06-10,3.37l1.66-13.55,20.48.63.75.02.02-.75.06-3.76.02-.75-.75-.03-24.71-.75-.68-.02-.08.67-2.82,24.59-.1.82.83.03,3.81.11.46.02.22-.41c.35-.66.96-1.36,1.6-1.96h.01s.01-.02.01-.02c2.12-2.11,4.97-3.25,8.32-3.15,6.04.19,10.35,4.67,10.24,10.6-.11,5.93-4.57,10.15-10.75,9.96-5.32-.16-9.34-3.68-9.88-7.91v-.96s-.74-.02-.74-.02l-4.07-.13-.75-.02v.75s-.02.26-.02.26Z"/>
        <path class="cls-3" d="m628.04,1390.65v-.09s-.02-.09-.02-.09c-1.41-6.51-7.04-11.3-14.85-11.54-5.5-.17-9.97,2.01-13.09,6.21-3.09,4.17-4.8,10.26-4.94,17.88-.14,7.71,1.76,13.33,4.91,17.04,3.15,3.72,7.48,5.45,12,5.52,9.19.28,16.24-6.18,16.41-15.18.16-8.73-6.37-15.49-15.19-15.76-5.36-.16-9.91,2.21-12.45,5.76.32-4.46,1.35-8.43,3.17-11.34,2.01-3.21,4.98-5.13,9.08-5,4.71.14,8.14,2.8,9.15,6.62h0s0,.03,0,.03l.12.39.16.52.54.02,4.21.12.75.03v-.75s.02-.39.02-.39Zm-5.28,19.7c-.11,5.82-4.72,10.28-10.61,10.1-6.01-.19-10.46-5.04-10.35-11,.1-5.51,4.79-9.75,10.73-9.57,6.04.19,10.34,4.67,10.23,10.47Z"/>
        <path class="cls-3" d="m665.73,1391.54v-.09s-.02-.08-.02-.08c-1.41-6.51-7.04-11.31-14.85-11.55-5.5-.17-9.97,2.02-13.09,6.21-3.09,4.17-4.8,10.26-4.94,17.88-.14,7.72,1.76,13.33,4.91,17.04,3.15,3.72,7.48,5.45,12,5.52,9.19.28,16.24-6.18,16.41-15.18.16-8.73-6.37-15.49-15.19-15.76-5.36-.16-9.91,2.21-12.45,5.76.32-4.46,1.35-8.43,3.17-11.33,2.02-3.22,4.98-5.13,9.08-5.01,4.71.15,8.14,2.8,9.15,6.62v.02s.01.01.01.01l.12.4.16.51.54.02,4.21.13.75.02v-.75s.02-.39.02-.39Zm-5.41,19.7c-.11,5.82-4.72,10.27-10.61,10.09-6-.18-10.34-5.01-10.36-11,.11-5.51,4.8-9.74,10.73-9.56,6.04.19,10.34,4.67,10.23,10.47Z"/>
        <path class="cls-3" d="m690.66,1284.02v-.08s-.02-.09-.02-.09c-1.41-6.51-7.04-11.31-14.85-11.55-5.5-.17-9.97,2.02-13.09,6.22-3.09,4.16-4.8,10.26-4.94,17.87-.14,7.72,1.76,13.33,4.91,17.04,3.15,3.72,7.48,5.45,12,5.52,9.19.28,16.24-6.18,16.41-15.18.16-8.73-6.37-15.48-15.19-15.75-5.36-.17-9.91,2.21-12.45,5.76.32-4.46,1.35-8.43,3.17-11.34,2.01-3.22,4.98-5.13,9.08-5,4.71.14,8.14,2.79,9.15,6.61v.02s.01.02.01.02l.12.39.16.52h.54s4.21.14,4.21.14l.75.02v-.75s.02-.39.02-.39Zm-5.41,19.7c-.11,5.82-4.72,10.28-10.61,10.1-6-.19-10.34-5.02-10.35-11,.11-5.51,4.8-9.75,10.73-9.56,6.04.18,10.34,4.66,10.23,10.46Z"/>
        <path class="cls-3" d="m696.03,1278.58l23.5.84-20.67,38.29-.58,1.08,1.23.03,4.34.14h.46s.22-.39.22-.39l21.12-39.36.09-.16v-.18s.08-3.89.08-3.89v-.75s-.74-.03-.74-.03l-28.93-.88-.75-.02v.75s-.08,3.76-.08,3.76v.75s.73.02.73.02Z"/>
        <path class="cls-3" d="m751.69,1157.68v-.09s-.02-.09-.02-.09c-1.41-6.51-7.04-11.31-14.85-11.55-5.5-.17-9.97,2.02-13.09,6.21-3.09,4.17-4.8,10.26-4.94,17.88-.14,7.72,1.76,13.33,4.9,17.04,3.15,3.72,7.48,5.45,12,5.52,9.19.28,16.24-6.18,16.41-15.18.16-8.73-6.37-15.49-15.19-15.76-5.36-.16-9.91,2.21-12.45,5.76.32-4.46,1.35-8.43,3.17-11.34,2.02-3.22,4.98-5.13,9.08-5.01,4.71.14,8.14,2.8,9.15,6.62v.02s.01.02.01.02l.12.39.16.52.54.02,4.2.13.75.02v-.75s.02-.39.02-.39Zm-5.28,19.71c-.11,5.82-4.72,10.27-10.61,10.09-6.01-.18-10.46-5.03-10.35-10.99.1-5.51,4.8-9.75,10.73-9.57,6.04.18,10.34,4.67,10.23,10.47Z"/>
        <path class="cls-3" d="m764.9,1168.59c-5,1.65-8.47,5.91-8.57,11.18-.15,7.97,6.97,13.56,16.41,13.85,9.44.29,16.62-4.87,16.77-12.83.1-5.28-3.12-9.64-8.12-11.66,4.13-1.63,6.85-5.05,6.93-9.54.13-7.17-6.05-12.36-14.72-12.63-8.66-.26-15.17,4.53-15.3,11.71-.08,4.4,2.54,7.97,6.61,9.92Zm8.11,3.09c3.28.1,5.98,1.09,7.84,2.63,1.84,1.53,2.87,3.62,2.82,6.04-.04,2.42-1.15,4.44-3.04,5.86-1.91,1.42-4.64,2.25-7.92,2.15-6.58-.2-10.75-4.03-10.66-8.79.08-4.61,4.36-8.08,10.97-7.87Zm.49-19.72c2.82.09,5.12.96,6.7,2.32,1.56,1.35,2.45,3.21,2.41,5.39-.08,4.1-3.82,7.05-9.37,6.88-5.8-.18-9.31-3.48-9.24-7.45.08-4.12,3.86-7.31,9.51-7.14Z"/>
        <path class="cls-3" d="m812.72,1026.42v-.09s-.02-.09-.02-.09c-1.41-6.51-7.04-11.31-14.85-11.55-5.5-.17-9.97,2.02-13.09,6.21-3.09,4.17-4.8,10.26-4.94,17.88-.14,7.72,1.76,13.33,4.9,17.04,3.15,3.72,7.48,5.45,12,5.52,9.19.28,16.24-6.18,16.41-15.18.16-8.73-6.37-15.49-15.19-15.76-5.36-.16-9.91,2.21-12.45,5.76.32-4.46,1.35-8.43,3.17-11.34,2.01-3.22,4.98-5.13,9.08-5.01,4.71.14,8.14,2.8,9.15,6.62v.02s0,.02,0,.02l.12.39.16.52.54.02,4.21.13.75.02v-.75s.02-.39.02-.39Zm-5.28,19.71c-.11,5.82-4.72,10.27-10.61,10.09-6.01-.18-10.46-5.03-10.35-10.99.1-5.51,4.79-9.75,10.73-9.57,6.04.18,10.34,4.67,10.23,10.47Z"/>
        <path class="cls-3" d="m818.5,1050.62v.09s.02.09.02.09c1.41,6.51,7.04,11.31,14.85,11.55,5.5.17,9.97-2.02,13.09-6.21,3.09-4.17,4.8-10.26,4.94-17.88.14-7.72-1.76-13.33-4.9-17.04-3.15-3.72-7.48-5.45-12-5.52-9.19-.28-16.24,6.18-16.41,15.18-.16,8.73,6.37,15.49,15.18,15.76,5.34.16,9.88-2.2,12.43-5.73-.36,4.45-1.4,8.41-3.2,11.31-2,3.22-4.93,5.13-9.03,5.01-4.71-.14-8.14-2.8-9.15-6.62v-.02s0-.02,0-.02l-.12-.39-.16-.52-.54-.02-4.2-.13-.75-.02v.75s-.02.39-.02.39Zm15.89-29.8c6.01.18,10.46,5.03,10.35,10.99-.1,5.51-4.79,9.75-10.73,9.57-6.04-.18-10.34-4.67-10.23-10.47.11-5.82,4.72-10.27,10.61-10.09Z"/>
        <path class="cls-5" d="m1541.5,1918.04v-.11c-1.4-6.39-6.92-11.11-14.62-11.35-5.42-.17-9.82,1.98-12.88,6.11-3.05,4.12-4.75,10.15-4.89,17.74-.14,7.67,1.75,13.22,4.84,16.87,3.1,3.66,7.36,5.36,11.82,5.43,9.06.28,15.99-6.08,16.15-14.94.16-8.58-6.26-15.23-14.94-15.5-5.66-.17-10.39,2.53-12.75,6.43.23-4.86,1.29-9.23,3.27-12.39,2.05-3.28,5.09-5.25,9.29-5.12,4.81.15,8.35,2.87,9.39,6.81h0s.01.02.01.02l.12.4.11.34h.36s4.2.14,4.2.14h.5s.01-.49.01-.49v-.39Zm-4.78,19.72c-.11,5.96-4.84,10.52-10.87,10.34-6.15-.19-10.71-5.16-10.6-11.25.1-5.67,4.93-10,10.99-9.81,6.17.19,10.59,4.78,10.48,10.72Z"/>
        <path class="cls-5" d="m1547.9,1921.03l11.4-7.01-.71,38.41v.5s.49.02.49.02l4.11.12.5.02v-.5l.82-43.97v-.5s-.49-.02-.49-.02l-4.1-.12h-.16s-.13.08-.13.08l-12.19,7.83-.22.14v.26l-.08,4.29-.02.93.78-.48Z"/>
      </g>
      <g>
        <path class="cls-4" d="m2771.29,1454.01h-.16l-12.33,8.5v-6.93l12.43-8.83h7.23v47.21h-7.16v-39.94Z"/>
        <path class="cls-4" d="m2788.7,1484.17v-.07c0-5.99,4.65-9.65,12.79-10.14l9.39-.56v-2.58c0-3.79-2.49-6.09-6.87-6.09-4.09,0-6.61,1.93-7.2,4.68l-.07.29h-6.67l.03-.36c.49-5.92,5.63-10.47,14.1-10.47s13.74,4.45,13.74,11.35v23.72h-7.07v-5.43h-.16c-2,3.7-5.95,6.05-10.53,6.05-6.87,0-11.48-4.22-11.48-10.4Zm13.41,4.74c4.97,0,8.77-3.37,8.77-7.85v-2.68l-8.44.52c-4.25.26-6.61,2.13-6.61,5.04v.07c0,3.01,2.49,4.91,6.28,4.91Z"/>
      </g>
      <g>
        <path class="cls-4" d="m2639.57,1420.29l16.62-16.72c6.28-6.28,7.69-8.77,7.69-12.43v-.07c-.03-4.48-3.43-7.69-8.21-7.69-5.53,0-9.49,3.73-9.55,8.51v.2h-6.94v-.2c0-8.44,7.16-14.56,16.39-14.56s15.54,5.69,15.54,13.31v.07c0,5.4-2.52,9.23-10.99,17.6l-10.73,10.53v.29h22.47v6.18h-32.29v-5.04Z"/>
        <path class="cls-4" d="m2677.12,1415.55v-.07c0-5.99,4.65-9.65,12.79-10.14l9.39-.56v-2.58c0-3.79-2.49-6.09-6.87-6.09-4.09,0-6.61,1.93-7.2,4.68l-.07.29h-6.67l.03-.36c.49-5.92,5.63-10.47,14.1-10.47s13.74,4.45,13.74,11.35v23.72h-7.07v-5.43h-.16c-2,3.7-5.96,6.05-10.54,6.05-6.87,0-11.48-4.22-11.48-10.4Zm13.41,4.74c4.97,0,8.77-3.37,8.77-7.85v-2.68l-8.44.52c-4.25.26-6.61,2.13-6.61,5.04v.07c0,3.01,2.49,4.91,6.28,4.91Z"/>
      </g>
      <g>
        <path class="cls-4" d="m2512.88,1341.19l-.03-.43h7.03l.03.36c.46,4.19,4.42,7.13,10.27,7.13s9.65-3.21,9.65-7.79v-.06c0-5.33-3.86-8.31-10.17-8.31h-5.72v-5.69h5.53c5.4,0,9.06-3.17,9.06-7.56v-.07c0-4.55-3.07-7.2-8.41-7.2s-8.9,2.75-9.36,7.13l-.03.29h-6.87l.03-.33c.72-7.88,7-13.09,16.23-13.09s15.54,4.97,15.54,12.24v.07c0,5.86-4.19,9.78-9.95,10.99v.16c6.94.62,11.58,4.81,11.58,11.42v.07c0,8.08-7.1,13.84-17.11,13.84s-16.65-5.5-17.31-13.18Z"/>
        <path class="cls-4" d="m2553.02,1343.81v-.07c0-5.99,4.65-9.65,12.79-10.14l9.39-.56v-2.58c0-3.79-2.49-6.09-6.87-6.09-4.09,0-6.61,1.93-7.2,4.68l-.07.29h-6.67l.03-.36c.49-5.92,5.63-10.47,14.1-10.47s13.74,4.45,13.74,11.35v23.72h-7.07v-5.43h-.16c-2,3.7-5.95,6.05-10.53,6.05-6.87,0-11.48-4.22-11.48-10.4Zm13.41,4.74c4.97,0,8.77-3.37,8.77-7.85v-2.68l-8.44.52c-4.25.26-6.61,2.13-6.61,5.04v.07c0,3.01,2.49,4.91,6.28,4.91Z"/>
      </g>
      <g>
        <path class="cls-4" d="m2404.8,1280.83h-23.62v-6.38l20.05-31.44h10.6v31.67h6.51v6.15h-6.51v9.39h-7.03v-9.39Zm.07-6.05v-25.98h-.2l-16.68,25.78v.2h16.88Z"/>
        <path class="cls-4" d="m2422.66,1280.44v-.07c0-5.99,4.65-9.65,12.79-10.14l9.39-.56v-2.58c0-3.79-2.49-6.09-6.87-6.09-4.09,0-6.61,1.93-7.2,4.68l-.07.29h-6.67l.03-.36c.49-5.92,5.63-10.47,14.1-10.47s13.74,4.45,13.74,11.35v23.72h-7.07v-5.43h-.16c-2,3.7-5.96,6.05-10.54,6.05-6.87,0-11.48-4.22-11.48-10.4Zm13.41,4.74c4.97,0,8.77-3.37,8.77-7.85v-2.68l-8.44.52c-4.25.26-6.61,2.13-6.61,5.04v.07c0,3.01,2.49,4.91,6.28,4.91Z"/>
      </g>
      <g>
        <path class="cls-4" d="m2227.26,1246.12l-.03-.39h7l.03.26c.62,4.25,4.48,7.53,9.75,7.53,5.95,0,10.11-4.12,10.11-9.98v-.07c-.03-5.79-4.19-9.88-10.04-9.88-2.91,0-5.43.85-7.33,2.55-.88.75-1.64,1.67-2.26,2.72h-6.41l2.32-27.22h28.13v6.18h-22.21l-1.44,14.95h.16c2.13-3.17,6.05-4.97,10.7-4.97,9.03,0,15.54,6.51,15.54,15.54v.07c0,9.59-7.17,16.23-17.34,16.23-9.46,0-16.03-5.72-16.68-13.51Z"/>
        <path class="cls-4" d="m2266,1249.07v-.07c0-5.99,4.65-9.65,12.79-10.14l9.39-.56v-2.58c0-3.79-2.49-6.09-6.87-6.09-4.09,0-6.61,1.93-7.2,4.68l-.07.29h-6.67l.03-.36c.49-5.92,5.63-10.47,14.1-10.47s13.74,4.45,13.74,11.35v23.72h-7.07v-5.43h-.16c-2,3.7-5.95,6.05-10.53,6.05-6.87,0-11.48-4.22-11.48-10.4Zm13.41,4.74c4.97,0,8.77-3.37,8.77-7.85v-2.68l-8.44.52c-4.25.26-6.61,2.13-6.61,5.04v.07c0,3.01,2.49,4.91,6.28,4.91Z"/>
      </g>
      <g>
        <path class="cls-4" d="m2138.19,1143.29v-.07c0-15.74,7.03-25.03,18.84-25.03,8.41,0,14.72,4.81,16.23,11.84l.1.39h-7.36l-.1-.33c-1.34-3.53-4.42-5.76-8.93-5.76-8.11,0-11.42,7.82-11.71,17.18-.03.42-.03.85-.03,1.28h.16c1.87-4.25,6.64-7.59,13.05-7.59,9.03,0,15.54,6.58,15.54,15.51v.07c0,9.42-7.3,16.19-17.24,16.19s-18.55-6.71-18.55-23.69Zm18.45,17.54c5.59,0,10.04-4.35,10.04-9.85v-.06c0-5.69-4.19-9.75-9.95-9.75s-10.08,4.02-10.08,9.62v.03c0,5.59,4.38,10.01,9.98,10.01Z"/>
        <path class="cls-4" d="m2179.94,1156.41v-.07c0-5.99,4.65-9.65,12.79-10.14l9.39-.56v-2.58c0-3.79-2.49-6.09-6.87-6.09-4.09,0-6.61,1.93-7.2,4.68l-.07.29h-6.67l.03-.36c.49-5.92,5.63-10.47,14.1-10.47s13.74,4.45,13.74,11.35v23.72h-7.07v-5.43h-.16c-2,3.7-5.96,6.05-10.54,6.05-6.87,0-11.48-4.22-11.48-10.4Zm13.41,4.74c4.97,0,8.77-3.37,8.77-7.85v-2.68l-8.44.52c-4.25.26-6.61,2.13-6.61,5.04v.07c0,3.01,2.49,4.91,6.28,4.91Z"/>
      </g>
      <g>
        <path class="cls-4" d="m1981.02,1060.98v-.16h-24.9v-6.18h32.13v6.35l-20.51,40.86h-7.69l20.97-40.86Z"/>
        <path class="cls-4" d="m1991.85,1092.05v-.07c0-5.99,4.65-9.65,12.79-10.14l9.39-.56v-2.58c0-3.79-2.49-6.09-6.87-6.09-4.09,0-6.61,1.93-7.2,4.68l-.07.29h-6.67l.03-.36c.49-5.92,5.63-10.47,14.1-10.47s13.74,4.45,13.74,11.35v23.72h-7.07v-5.43h-.16c-2,3.7-5.96,6.05-10.54,6.05-6.87,0-11.48-4.22-11.48-10.4Zm13.41,4.74c4.97,0,8.77-3.37,8.77-7.85v-2.68l-8.44.52c-4.25.26-6.61,2.13-6.61,5.04v.07c0,3.01,2.49,4.91,6.28,4.91Z"/>
      </g>
      <g>
        <path class="cls-4" d="m1703.68,1000.24v.06c0,15.74-7.03,25.03-18.84,25.03-8.41,0-14.72-4.81-16.23-11.84l-.1-.39h7.33l.13.33c1.34,3.53,4.42,5.76,8.93,5.76,8.11,0,11.42-7.82,11.71-17.18.03-.42.03-.85.03-1.28h-.16c-1.86,4.25-6.64,7.59-13.05,7.59-9.03,0-15.57-6.58-15.57-15.51v-.07c0-9.42,7.3-16.19,17.27-16.19s18.55,6.71,18.55,23.69Zm-8.47-7.49v-.03c0-5.59-4.38-10.01-10.01-10.01s-10.04,4.35-10.04,9.85v.07c0,5.69,4.22,9.75,9.95,9.75s10.11-4.02,10.11-9.62Z"/>
        <path class="cls-4" d="m1708.98,1014.77v-.07c0-5.99,4.65-9.65,12.79-10.14l9.39-.56v-2.58c0-3.79-2.49-6.09-6.87-6.09-4.09,0-6.61,1.93-7.2,4.68l-.07.29h-6.67l.03-.36c.49-5.92,5.63-10.47,14.1-10.47s13.74,4.45,13.74,11.35v23.72h-7.07v-5.43h-.16c-2,3.7-5.96,6.05-10.54,6.05-6.87,0-11.48-4.22-11.48-10.4Zm13.41,4.74c4.97,0,8.77-3.37,8.77-7.85v-2.68l-8.44.52c-4.25.26-6.61,2.13-6.61,5.04v.07c0,3.01,2.49,4.91,6.28,4.91Z"/>
      </g>
      <g>
        <path class="cls-4" d="m1536.85,936.42h-.16l-12.33,8.51v-6.94l12.43-8.83h7.23v47.21h-7.16v-39.94Z"/>
        <path class="cls-4" d="m1554.71,952.78v-.06c0-14.98,6.74-24.34,18.03-24.34s18.03,9.36,18.03,24.34v.06c0,14.98-6.77,24.37-18.03,24.37s-18.03-9.39-18.03-24.37Zm28.66,0v-.06c0-11.32-3.93-18.19-10.63-18.19s-10.63,6.87-10.63,18.19v.06c0,11.32,3.89,18.26,10.63,18.26s10.63-6.94,10.63-18.26Z"/>
        <path class="cls-4" d="m1596.06,966.59v-.07c0-5.99,4.65-9.65,12.79-10.14l9.39-.56v-2.58c0-3.79-2.49-6.09-6.87-6.09-4.09,0-6.61,1.93-7.2,4.68l-.07.29h-6.67l.03-.36c.49-5.92,5.63-10.47,14.1-10.47s13.74,4.45,13.74,11.35v23.72h-7.07v-5.43h-.16c-2,3.7-5.95,6.05-10.53,6.05-6.87,0-11.48-4.22-11.48-10.4Zm13.41,4.74c4.97,0,8.77-3.37,8.77-7.85v-2.68l-8.44.52c-4.25.26-6.61,2.13-6.61,5.04v.07c0,3.01,2.49,4.91,6.28,4.91Z"/>
      </g>
      <g>
        <path class="cls-4" d="m1385.02,884.76h-.16l-12.33,8.51v-6.94l12.43-8.83h7.23v47.21h-7.16v-39.94Z"/>
        <path class="cls-4" d="m1415.61,884.76h-.16l-12.33,8.51v-6.94l12.43-8.83h7.23v47.21h-7.16v-39.94Z"/>
        <path class="cls-4" d="m1433.01,914.92v-.07c0-5.99,4.65-9.65,12.79-10.14l9.39-.56v-2.58c0-3.79-2.49-6.09-6.87-6.09-4.09,0-6.61,1.93-7.2,4.68l-.07.29h-6.67l.03-.36c.49-5.92,5.63-10.47,14.1-10.47s13.74,4.45,13.74,11.35v23.72h-7.07v-5.43h-.16c-2,3.7-5.96,6.05-10.54,6.05-6.87,0-11.48-4.22-11.48-10.4Zm13.41,4.74c4.97,0,8.77-3.37,8.77-7.85v-2.68l-8.44.52c-4.25.26-6.61,2.13-6.61,5.04v.07c0,3.01,2.49,4.91,6.28,4.91Z"/>
      </g>
      <g>
        <path class="cls-4" d="m1246.74,835.04h-.16l-12.33,8.51v-6.94l12.43-8.83h7.23v47.21h-7.16v-39.94Z"/>
        <path class="cls-4" d="m1265.38,869.95l16.62-16.72c6.28-6.28,7.69-8.77,7.69-12.43v-.07c-.03-4.48-3.43-7.69-8.21-7.69-5.53,0-9.49,3.73-9.55,8.51v.2h-6.94v-.2c0-8.44,7.16-14.56,16.39-14.56s15.54,5.69,15.54,13.31v.07c0,5.4-2.52,9.23-10.99,17.6l-10.73,10.53v.29h22.47v6.18h-32.29v-5.04Z"/>
        <path class="cls-4" d="m1302.94,865.2v-.07c0-5.99,4.65-9.65,12.79-10.14l9.39-.56v-2.58c0-3.79-2.49-6.09-6.87-6.09-4.09,0-6.61,1.93-7.2,4.68l-.07.29h-6.67l.03-.36c.49-5.92,5.63-10.47,14.1-10.47s13.74,4.45,13.74,11.35v23.72h-7.07v-5.43h-.16c-2,3.7-5.95,6.05-10.53,6.05-6.87,0-11.48-4.22-11.48-10.4Zm13.41,4.74c4.97,0,8.77-3.37,8.77-7.85v-2.68l-8.44.52c-4.25.26-6.61,2.13-6.61,5.04v.07c0,3.01,2.49,4.91,6.28,4.91Z"/>
      </g>
      <g>
        <path class="cls-4" d="m1099.83,789.34h-.16l-12.33,8.51v-6.94l12.43-8.83h7.23v47.21h-7.16v-39.94Z"/>
        <path class="cls-4" d="m1117.66,816.89l-.03-.43h7.03l.03.36c.46,4.19,4.42,7.13,10.27,7.13s9.65-3.21,9.65-7.79v-.06c0-5.33-3.86-8.31-10.17-8.31h-5.72v-5.69h5.53c5.4,0,9.06-3.17,9.06-7.56v-.07c0-4.55-3.07-7.2-8.41-7.2s-8.9,2.75-9.36,7.13l-.03.29h-6.87l.03-.33c.72-7.88,7-13.09,16.23-13.09s15.54,4.97,15.54,12.24v.07c0,5.86-4.19,9.78-9.95,10.99v.16c6.94.62,11.58,4.81,11.58,11.42v.07c0,8.08-7.1,13.84-17.11,13.84s-16.65-5.5-17.31-13.18Z"/>
        <path class="cls-4" d="m1157.8,819.51v-.07c0-5.99,4.65-9.65,12.79-10.14l9.39-.56v-2.58c0-3.79-2.49-6.09-6.87-6.09-4.09,0-6.61,1.93-7.2,4.68l-.07.29h-6.67l.03-.36c.49-5.92,5.63-10.47,14.1-10.47s13.74,4.45,13.74,11.35v23.72h-7.07v-5.43h-.16c-2,3.7-5.95,6.05-10.53,6.05-6.87,0-11.48-4.22-11.48-10.4Zm13.41,4.74c4.97,0,8.77-3.37,8.77-7.85v-2.68l-8.44.52c-4.25.26-6.61,2.13-6.61,5.04v.07c0,3.01,2.49,4.91,6.28,4.91Z"/>
      </g>
      <g>
        <path class="cls-4" d="m964.21,728.42h-.16l-12.33,8.51v-6.94l12.43-8.83h7.23v47.21h-7.16v-39.94Z"/>
        <path class="cls-4" d="m1005.3,758.98h-23.62v-6.38l20.05-31.44h10.6v31.67h6.51v6.15h-6.51v9.39h-7.03v-9.39Zm.07-6.05v-25.98h-.2l-16.68,25.78v.2h16.88Z"/>
        <path class="cls-4" d="m1023.16,758.58v-.07c0-5.99,4.65-9.65,12.79-10.14l9.39-.56v-2.58c0-3.79-2.49-6.09-6.87-6.09-4.09,0-6.61,1.93-7.2,4.68l-.07.29h-6.67l.03-.36c.49-5.92,5.63-10.47,14.1-10.47s13.74,4.45,13.74,11.35v23.72h-7.07v-5.43h-.16c-2,3.7-5.95,6.05-10.53,6.05-6.87,0-11.48-4.22-11.48-10.4Zm13.41,4.74c4.97,0,8.77-3.37,8.77-7.85v-2.68l-8.44.52c-4.25.26-6.61,2.13-6.61,5.04v.07c0,3.01,2.49,4.91,6.28,4.91Z"/>
      </g>
      <g>
        <path class="cls-4" d="m1814.93,1043.57h6.51c5.63,0,9.26-3.11,9.26-7.62v-.07c0-4.19-3.27-6.71-8.93-6.71s-9,2.39-9.55,6.44l-.03.46h-7.03l.03-.46c.49-7.98,6.94-12.86,16.82-12.86s15.96,5.04,15.96,12.33v.07c0,5.23-3.53,9.62-8.77,10.83v.26c6.31.79,10.21,5.27,10.21,11.61v.07c0,7.79-7.46,13.61-17.57,13.61s-17.37-5.3-17.86-13.09l-.03-.39h7.17l.03.26c.52,4.35,4.48,6.8,10.7,6.8s10.08-2.98,10.08-7.52v-.07c0-4.91-3.79-7.82-10.27-7.82h-6.71v-6.15Z"/>
        <path class="cls-4" d="m1847.39,1070.69v-6.28c.65.16,1.63.26,2.71.26,3.27,0,5.53-1.28,7.33-4.42l-15.96-36.71h7.79l11.81,29.02h.49l11.45-29.02h7.66l-14.46,33.7c-4.35,10.14-8.21,13.87-15.67,13.87-1.44,0-2.72-.23-3.14-.42Z"/>
        <path class="cls-4" d="m1897.01,1030.81h-.16l-12.33,8.51v-6.94l12.43-8.83h7.23v47.21h-7.17v-39.94Z"/>
      </g>
    </g>
  </g>
</svg>