<?xml version="1.0" standalone="no"?>
<!DOCTYPE svg PUBLIC "-//W3C//DTD SVG 20010904//EN"
 "http://www.w3.org/TR/2001/REC-SVG-20010904/DTD/svg10.dtd">
<svg version="1.0" xmlns="http://www.w3.org/2000/svg"
 width="700.000000pt" height="700.000000pt" viewBox="0 0 700.000000 700.000000"
 preserveAspectRatio="xMidYMid meet">
<metadata>
Created by potrace 1.14, written by Peter Selinger 2001-2017
</metadata>
<g transform="translate(0.000000,700.000000) scale(0.100000,-0.100000)"
fill="#000000" stroke="none">
<path d="M3 5798 c3 -662 7 -1225 10 -1253 16 -139 18 -161 22 -175 2 -8 6
-31 9 -52 10 -63 46 -145 79 -177 74 -73 179 -61 388 44 110 56 405 235 609
370 251 166 485 297 575 321 6 1 42 14 82 27 131 46 292 58 417 32 90 -19 271
-130 351 -216 56 -60 180 -152 250 -185 83 -40 105 -45 210 -49 182 -8 393 94
696 337 104 83 223 185 268 229 9 8 45 40 81 70 36 30 67 57 70 60 3 3 50 41
105 84 218 170 423 288 586 336 94 28 305 35 389 13 259 -67 509 -223 884
-554 30 -27 32 -28 147 -132 298 -269 486 -398 578 -398 54 0 76 12 105 59 33
51 47 107 61 231 3 30 8 73 12 95 3 22 7 500 10 1063 l5 1022 -3502 0 -3502 0
5 -1202z"/>
<path d="M4867 4360 c-78 -20 -222 -95 -359 -187 -57 -37 -105 -70 -108 -73
-3 -3 -52 -41 -110 -84 -58 -44 -107 -83 -110 -87 -3 -3 -36 -32 -75 -64 -140
-114 -432 -399 -568 -553 -378 -429 -723 -1102 -853 -1664 -2 -10 -6 -28 -9
-40 -37 -161 -49 -297 -48 -533 1 -287 15 -446 48 -565 9 -30 17 -60 18 -65 9
-36 64 -130 100 -170 61 -70 188 -147 282 -170 6 -1 17 -4 25 -7 8 -3 38 -10
65 -16 45 -10 63 -13 132 -26 12 -3 48 -7 80 -11 32 -3 69 -8 83 -10 14 -2 70
-7 125 -10 55 -4 129 -9 165 -12 36 -2 782 -7 1658 -10 l1593 -5 -4 854 c-4
858 -6 914 -42 1103 -3 17 -12 64 -20 105 -31 166 -130 501 -185 625 -10 22
-36 83 -58 135 -23 52 -67 145 -98 205 -365 704 -903 1207 -1412 1320 -141 31
-234 36 -315 15z"/>
<path d="M1925 3746 c-106 -41 -280 -139 -695 -389 -146 -88 -299 -185 -340
-216 -70 -52 -266 -240 -337 -322 -134 -156 -287 -408 -373 -614 -23 -55 -45
-109 -50 -120 -22 -49 -91 -283 -110 -372 -20 -92 -21 -123 -18 -538 l3 -440
29 -85 c110 -329 282 -522 546 -611 87 -29 107 -32 235 -35 313 -5 504 76 652
277 60 81 157 293 178 386 2 10 9 34 15 53 6 19 13 46 16 60 3 14 11 50 19 80
8 31 17 73 20 95 4 22 10 56 15 75 5 19 12 51 15 70 25 176 46 332 55 420 6
58 13 116 15 130 2 14 7 61 10 105 4 44 8 91 10 105 2 14 6 48 10 75 3 28 8
66 10 85 3 19 7 60 10 90 4 30 8 62 10 70 2 8 7 51 11 95 3 44 8 88 10 99 2
10 6 53 10 95 3 42 7 78 9 81 2 3 6 48 10 100 4 52 8 102 10 110 2 8 6 53 9
100 4 47 9 101 11 120 2 19 7 69 10 110 3 41 8 95 10 120 11 136 18 225 31
453 7 122 11 118 -81 83z"/>
</g>
</svg>
